G75*
%MOIN*%
%OFA0B0*%
%FSLAX24Y24*%
%IPPOS*%
%LPD*%
%AMOC8*
5,1,8,0,0,1.08239X$1,22.5*
%
%ADD10C,0.0000*%
%ADD11R,0.0827X0.0827*%
%ADD12C,0.0594*%
%ADD13C,0.0160*%
%ADD14C,0.0500*%
D10*
X000100Y000100D02*
X000100Y019596D01*
X028970Y019596D01*
X028970Y000100D01*
X000100Y000100D01*
X001970Y002600D02*
X001972Y002650D01*
X001978Y002700D01*
X001988Y002749D01*
X002002Y002797D01*
X002019Y002844D01*
X002040Y002889D01*
X002065Y002933D01*
X002093Y002974D01*
X002125Y003013D01*
X002159Y003050D01*
X002196Y003084D01*
X002236Y003114D01*
X002278Y003141D01*
X002322Y003165D01*
X002368Y003186D01*
X002415Y003202D01*
X002463Y003215D01*
X002513Y003224D01*
X002562Y003229D01*
X002613Y003230D01*
X002663Y003227D01*
X002712Y003220D01*
X002761Y003209D01*
X002809Y003194D01*
X002855Y003176D01*
X002900Y003154D01*
X002943Y003128D01*
X002984Y003099D01*
X003023Y003067D01*
X003059Y003032D01*
X003091Y002994D01*
X003121Y002954D01*
X003148Y002911D01*
X003171Y002867D01*
X003190Y002821D01*
X003206Y002773D01*
X003218Y002724D01*
X003226Y002675D01*
X003230Y002625D01*
X003230Y002575D01*
X003226Y002525D01*
X003218Y002476D01*
X003206Y002427D01*
X003190Y002379D01*
X003171Y002333D01*
X003148Y002289D01*
X003121Y002246D01*
X003091Y002206D01*
X003059Y002168D01*
X003023Y002133D01*
X002984Y002101D01*
X002943Y002072D01*
X002900Y002046D01*
X002855Y002024D01*
X002809Y002006D01*
X002761Y001991D01*
X002712Y001980D01*
X002663Y001973D01*
X002613Y001970D01*
X002562Y001971D01*
X002513Y001976D01*
X002463Y001985D01*
X002415Y001998D01*
X002368Y002014D01*
X002322Y002035D01*
X002278Y002059D01*
X002236Y002086D01*
X002196Y002116D01*
X002159Y002150D01*
X002125Y002187D01*
X002093Y002226D01*
X002065Y002267D01*
X002040Y002311D01*
X002019Y002356D01*
X002002Y002403D01*
X001988Y002451D01*
X001978Y002500D01*
X001972Y002550D01*
X001970Y002600D01*
X004718Y016502D02*
X004720Y016550D01*
X004726Y016598D01*
X004736Y016645D01*
X004749Y016691D01*
X004767Y016736D01*
X004787Y016780D01*
X004812Y016822D01*
X004840Y016861D01*
X004870Y016898D01*
X004904Y016932D01*
X004941Y016964D01*
X004979Y016993D01*
X005020Y017018D01*
X005063Y017040D01*
X005108Y017058D01*
X005154Y017072D01*
X005201Y017083D01*
X005249Y017090D01*
X005297Y017093D01*
X005345Y017092D01*
X005393Y017087D01*
X005441Y017078D01*
X005487Y017066D01*
X005532Y017049D01*
X005576Y017029D01*
X005618Y017006D01*
X005658Y016979D01*
X005696Y016949D01*
X005731Y016916D01*
X005763Y016880D01*
X005793Y016842D01*
X005819Y016801D01*
X005841Y016758D01*
X005861Y016714D01*
X005876Y016669D01*
X005888Y016622D01*
X005896Y016574D01*
X005900Y016526D01*
X005900Y016478D01*
X005896Y016430D01*
X005888Y016382D01*
X005876Y016335D01*
X005861Y016290D01*
X005841Y016246D01*
X005819Y016203D01*
X005793Y016162D01*
X005763Y016124D01*
X005731Y016088D01*
X005696Y016055D01*
X005658Y016025D01*
X005618Y015998D01*
X005576Y015975D01*
X005532Y015955D01*
X005487Y015938D01*
X005441Y015926D01*
X005393Y015917D01*
X005345Y015912D01*
X005297Y015911D01*
X005249Y015914D01*
X005201Y015921D01*
X005154Y015932D01*
X005108Y015946D01*
X005063Y015964D01*
X005020Y015986D01*
X004979Y016011D01*
X004941Y016040D01*
X004904Y016072D01*
X004870Y016106D01*
X004840Y016143D01*
X004812Y016182D01*
X004787Y016224D01*
X004767Y016268D01*
X004749Y016313D01*
X004736Y016359D01*
X004726Y016406D01*
X004720Y016454D01*
X004718Y016502D01*
X001970Y017100D02*
X001972Y017150D01*
X001978Y017200D01*
X001988Y017249D01*
X002002Y017297D01*
X002019Y017344D01*
X002040Y017389D01*
X002065Y017433D01*
X002093Y017474D01*
X002125Y017513D01*
X002159Y017550D01*
X002196Y017584D01*
X002236Y017614D01*
X002278Y017641D01*
X002322Y017665D01*
X002368Y017686D01*
X002415Y017702D01*
X002463Y017715D01*
X002513Y017724D01*
X002562Y017729D01*
X002613Y017730D01*
X002663Y017727D01*
X002712Y017720D01*
X002761Y017709D01*
X002809Y017694D01*
X002855Y017676D01*
X002900Y017654D01*
X002943Y017628D01*
X002984Y017599D01*
X003023Y017567D01*
X003059Y017532D01*
X003091Y017494D01*
X003121Y017454D01*
X003148Y017411D01*
X003171Y017367D01*
X003190Y017321D01*
X003206Y017273D01*
X003218Y017224D01*
X003226Y017175D01*
X003230Y017125D01*
X003230Y017075D01*
X003226Y017025D01*
X003218Y016976D01*
X003206Y016927D01*
X003190Y016879D01*
X003171Y016833D01*
X003148Y016789D01*
X003121Y016746D01*
X003091Y016706D01*
X003059Y016668D01*
X003023Y016633D01*
X002984Y016601D01*
X002943Y016572D01*
X002900Y016546D01*
X002855Y016524D01*
X002809Y016506D01*
X002761Y016491D01*
X002712Y016480D01*
X002663Y016473D01*
X002613Y016470D01*
X002562Y016471D01*
X002513Y016476D01*
X002463Y016485D01*
X002415Y016498D01*
X002368Y016514D01*
X002322Y016535D01*
X002278Y016559D01*
X002236Y016586D01*
X002196Y016616D01*
X002159Y016650D01*
X002125Y016687D01*
X002093Y016726D01*
X002065Y016767D01*
X002040Y016811D01*
X002019Y016856D01*
X002002Y016903D01*
X001988Y016951D01*
X001978Y017000D01*
X001972Y017050D01*
X001970Y017100D01*
X023300Y016502D02*
X023302Y016550D01*
X023308Y016598D01*
X023318Y016645D01*
X023331Y016691D01*
X023349Y016736D01*
X023369Y016780D01*
X023394Y016822D01*
X023422Y016861D01*
X023452Y016898D01*
X023486Y016932D01*
X023523Y016964D01*
X023561Y016993D01*
X023602Y017018D01*
X023645Y017040D01*
X023690Y017058D01*
X023736Y017072D01*
X023783Y017083D01*
X023831Y017090D01*
X023879Y017093D01*
X023927Y017092D01*
X023975Y017087D01*
X024023Y017078D01*
X024069Y017066D01*
X024114Y017049D01*
X024158Y017029D01*
X024200Y017006D01*
X024240Y016979D01*
X024278Y016949D01*
X024313Y016916D01*
X024345Y016880D01*
X024375Y016842D01*
X024401Y016801D01*
X024423Y016758D01*
X024443Y016714D01*
X024458Y016669D01*
X024470Y016622D01*
X024478Y016574D01*
X024482Y016526D01*
X024482Y016478D01*
X024478Y016430D01*
X024470Y016382D01*
X024458Y016335D01*
X024443Y016290D01*
X024423Y016246D01*
X024401Y016203D01*
X024375Y016162D01*
X024345Y016124D01*
X024313Y016088D01*
X024278Y016055D01*
X024240Y016025D01*
X024200Y015998D01*
X024158Y015975D01*
X024114Y015955D01*
X024069Y015938D01*
X024023Y015926D01*
X023975Y015917D01*
X023927Y015912D01*
X023879Y015911D01*
X023831Y015914D01*
X023783Y015921D01*
X023736Y015932D01*
X023690Y015946D01*
X023645Y015964D01*
X023602Y015986D01*
X023561Y016011D01*
X023523Y016040D01*
X023486Y016072D01*
X023452Y016106D01*
X023422Y016143D01*
X023394Y016182D01*
X023369Y016224D01*
X023349Y016268D01*
X023331Y016313D01*
X023318Y016359D01*
X023308Y016406D01*
X023302Y016454D01*
X023300Y016502D01*
X025970Y017100D02*
X025972Y017150D01*
X025978Y017200D01*
X025988Y017249D01*
X026002Y017297D01*
X026019Y017344D01*
X026040Y017389D01*
X026065Y017433D01*
X026093Y017474D01*
X026125Y017513D01*
X026159Y017550D01*
X026196Y017584D01*
X026236Y017614D01*
X026278Y017641D01*
X026322Y017665D01*
X026368Y017686D01*
X026415Y017702D01*
X026463Y017715D01*
X026513Y017724D01*
X026562Y017729D01*
X026613Y017730D01*
X026663Y017727D01*
X026712Y017720D01*
X026761Y017709D01*
X026809Y017694D01*
X026855Y017676D01*
X026900Y017654D01*
X026943Y017628D01*
X026984Y017599D01*
X027023Y017567D01*
X027059Y017532D01*
X027091Y017494D01*
X027121Y017454D01*
X027148Y017411D01*
X027171Y017367D01*
X027190Y017321D01*
X027206Y017273D01*
X027218Y017224D01*
X027226Y017175D01*
X027230Y017125D01*
X027230Y017075D01*
X027226Y017025D01*
X027218Y016976D01*
X027206Y016927D01*
X027190Y016879D01*
X027171Y016833D01*
X027148Y016789D01*
X027121Y016746D01*
X027091Y016706D01*
X027059Y016668D01*
X027023Y016633D01*
X026984Y016601D01*
X026943Y016572D01*
X026900Y016546D01*
X026855Y016524D01*
X026809Y016506D01*
X026761Y016491D01*
X026712Y016480D01*
X026663Y016473D01*
X026613Y016470D01*
X026562Y016471D01*
X026513Y016476D01*
X026463Y016485D01*
X026415Y016498D01*
X026368Y016514D01*
X026322Y016535D01*
X026278Y016559D01*
X026236Y016586D01*
X026196Y016616D01*
X026159Y016650D01*
X026125Y016687D01*
X026093Y016726D01*
X026065Y016767D01*
X026040Y016811D01*
X026019Y016856D01*
X026002Y016903D01*
X025988Y016951D01*
X025978Y017000D01*
X025972Y017050D01*
X025970Y017100D01*
X025970Y002600D02*
X025972Y002650D01*
X025978Y002700D01*
X025988Y002749D01*
X026002Y002797D01*
X026019Y002844D01*
X026040Y002889D01*
X026065Y002933D01*
X026093Y002974D01*
X026125Y003013D01*
X026159Y003050D01*
X026196Y003084D01*
X026236Y003114D01*
X026278Y003141D01*
X026322Y003165D01*
X026368Y003186D01*
X026415Y003202D01*
X026463Y003215D01*
X026513Y003224D01*
X026562Y003229D01*
X026613Y003230D01*
X026663Y003227D01*
X026712Y003220D01*
X026761Y003209D01*
X026809Y003194D01*
X026855Y003176D01*
X026900Y003154D01*
X026943Y003128D01*
X026984Y003099D01*
X027023Y003067D01*
X027059Y003032D01*
X027091Y002994D01*
X027121Y002954D01*
X027148Y002911D01*
X027171Y002867D01*
X027190Y002821D01*
X027206Y002773D01*
X027218Y002724D01*
X027226Y002675D01*
X027230Y002625D01*
X027230Y002575D01*
X027226Y002525D01*
X027218Y002476D01*
X027206Y002427D01*
X027190Y002379D01*
X027171Y002333D01*
X027148Y002289D01*
X027121Y002246D01*
X027091Y002206D01*
X027059Y002168D01*
X027023Y002133D01*
X026984Y002101D01*
X026943Y002072D01*
X026900Y002046D01*
X026855Y002024D01*
X026809Y002006D01*
X026761Y001991D01*
X026712Y001980D01*
X026663Y001973D01*
X026613Y001970D01*
X026562Y001971D01*
X026513Y001976D01*
X026463Y001985D01*
X026415Y001998D01*
X026368Y002014D01*
X026322Y002035D01*
X026278Y002059D01*
X026236Y002086D01*
X026196Y002116D01*
X026159Y002150D01*
X026125Y002187D01*
X026093Y002226D01*
X026065Y002267D01*
X026040Y002311D01*
X026019Y002356D01*
X026002Y002403D01*
X025988Y002451D01*
X025978Y002500D01*
X025972Y002550D01*
X025970Y002600D01*
D11*
X022041Y014517D03*
X020387Y014517D03*
X018734Y014517D03*
X017080Y014517D03*
X015427Y014517D03*
X013773Y014517D03*
X012120Y014517D03*
X010466Y014517D03*
X008813Y014517D03*
X007159Y014517D03*
X007159Y016683D03*
X008813Y016683D03*
X010466Y016683D03*
X012120Y016683D03*
X013773Y016683D03*
X015427Y016683D03*
X017080Y016683D03*
X018734Y016683D03*
X020387Y016683D03*
X022041Y016683D03*
D12*
X023100Y010897D02*
X023100Y010303D01*
X024100Y010303D02*
X024100Y010897D01*
X025100Y006897D02*
X025100Y006303D01*
X026100Y006303D02*
X026100Y006897D01*
X022100Y006897D02*
X022100Y006303D01*
X021100Y006303D02*
X021100Y006897D01*
X018100Y006897D02*
X018100Y006303D01*
X017100Y006303D02*
X017100Y006897D01*
X017100Y010303D02*
X017100Y010897D01*
X018100Y010897D02*
X018100Y010303D01*
X012100Y010303D02*
X012100Y010897D01*
X011100Y010897D02*
X011100Y010303D01*
X011100Y007397D02*
X011100Y006803D01*
X012100Y006803D02*
X012100Y007397D01*
X008100Y007397D02*
X008100Y006803D01*
X007100Y006803D02*
X007100Y007397D01*
X004100Y007397D02*
X004100Y006803D01*
X003100Y006803D02*
X003100Y007397D01*
X005100Y010303D02*
X005100Y010897D01*
X006100Y010897D02*
X006100Y010303D01*
X005600Y002897D02*
X005600Y002303D01*
X006600Y002303D02*
X006600Y002897D01*
X007600Y002897D02*
X007600Y002303D01*
X008600Y002303D02*
X008600Y002897D01*
D13*
X008216Y003112D02*
X007984Y003112D01*
X007970Y003144D02*
X007847Y003267D01*
X007687Y003334D01*
X007513Y003334D01*
X007353Y003267D01*
X007230Y003144D01*
X007163Y002984D01*
X007163Y002216D01*
X007230Y002056D01*
X007353Y001933D01*
X007513Y001866D01*
X007687Y001866D01*
X007847Y001933D01*
X007970Y002056D01*
X008037Y002216D01*
X008037Y002984D01*
X007970Y003144D01*
X007841Y003270D02*
X008359Y003270D01*
X008353Y003267D02*
X008230Y003144D01*
X008163Y002984D01*
X008163Y002216D01*
X008230Y002056D01*
X008353Y001933D01*
X008513Y001866D01*
X008687Y001866D01*
X008847Y001933D01*
X008970Y002056D01*
X009034Y002210D01*
X010100Y002210D01*
X010100Y000600D01*
X000600Y000600D01*
X000600Y019100D01*
X028600Y019100D01*
X028600Y004100D01*
X027324Y004100D01*
X027214Y004164D01*
X026726Y004275D01*
X026226Y004238D01*
X025875Y004100D01*
X010652Y004100D01*
X011762Y005210D01*
X013178Y005210D01*
X013321Y005269D01*
X013431Y005379D01*
X013490Y005522D01*
X013490Y011678D01*
X013431Y011821D01*
X011020Y014232D01*
X011020Y014989D01*
X010938Y015071D01*
X009995Y015071D01*
X009990Y015066D01*
X009990Y015678D01*
X009931Y015821D01*
X009490Y016262D01*
X009490Y016545D01*
X009496Y016567D01*
X009490Y016622D01*
X009490Y016678D01*
X009481Y016698D01*
X009479Y016721D01*
X009452Y016770D01*
X009431Y016821D01*
X009415Y016837D01*
X009404Y016857D01*
X009366Y016887D01*
X009366Y017154D01*
X009284Y017236D01*
X008341Y017236D01*
X008259Y017154D01*
X008259Y016211D01*
X008341Y016129D01*
X008710Y016129D01*
X008710Y016022D01*
X008769Y015879D01*
X008879Y015769D01*
X009210Y015438D01*
X009210Y015071D01*
X008341Y015071D01*
X008259Y014989D01*
X008259Y014046D01*
X008341Y013964D01*
X009210Y013964D01*
X009210Y013522D01*
X009269Y013379D01*
X009379Y013269D01*
X009710Y012938D01*
X009710Y010522D01*
X009769Y010379D01*
X009879Y010269D01*
X010022Y010210D01*
X010666Y010210D01*
X010730Y010056D01*
X010853Y009933D01*
X011013Y009866D01*
X011187Y009866D01*
X011347Y009933D01*
X011470Y010056D01*
X011537Y010216D01*
X011537Y010984D01*
X011470Y011144D01*
X011347Y011267D01*
X011187Y011334D01*
X011013Y011334D01*
X010853Y011267D01*
X010730Y011144D01*
X010666Y010990D01*
X010490Y010990D01*
X010490Y013178D01*
X010431Y013321D01*
X009990Y013762D01*
X009990Y013969D01*
X009995Y013964D01*
X010234Y013964D01*
X010269Y013879D01*
X010379Y013769D01*
X012710Y011438D01*
X012710Y005990D01*
X011522Y005990D01*
X011379Y005931D01*
X011269Y005821D01*
X009769Y004321D01*
X009710Y004178D01*
X009710Y002990D01*
X009034Y002990D01*
X008970Y003144D01*
X008847Y003267D01*
X008687Y003334D01*
X008513Y003334D01*
X008353Y003267D01*
X008163Y002953D02*
X008037Y002953D01*
X008037Y002795D02*
X008163Y002795D01*
X008163Y002636D02*
X008037Y002636D01*
X008037Y002478D02*
X008163Y002478D01*
X008163Y002319D02*
X008037Y002319D01*
X008014Y002161D02*
X008186Y002161D01*
X008283Y002002D02*
X007917Y002002D01*
X007283Y002002D02*
X006971Y002002D01*
X006964Y001993D02*
X007008Y002053D01*
X007042Y002120D01*
X007065Y002191D01*
X007077Y002266D01*
X007077Y002582D01*
X006618Y002582D01*
X006618Y002618D01*
X007077Y002618D01*
X007077Y002934D01*
X007065Y003009D01*
X007042Y003080D01*
X007008Y003147D01*
X006964Y003207D01*
X006911Y003261D01*
X006850Y003305D01*
X006783Y003339D01*
X006712Y003362D01*
X006638Y003374D01*
X006618Y003374D01*
X006618Y002618D01*
X006582Y002618D01*
X006582Y002582D01*
X006618Y002582D01*
X006618Y001826D01*
X006638Y001826D01*
X006712Y001838D01*
X006783Y001861D01*
X006850Y001895D01*
X006911Y001939D01*
X006964Y001993D01*
X007055Y002161D02*
X007186Y002161D01*
X007163Y002319D02*
X007077Y002319D01*
X007077Y002478D02*
X007163Y002478D01*
X007163Y002636D02*
X007077Y002636D01*
X007077Y002795D02*
X007163Y002795D01*
X007163Y002953D02*
X007074Y002953D01*
X007026Y003112D02*
X007216Y003112D01*
X007359Y003270D02*
X006898Y003270D01*
X006618Y003270D02*
X006582Y003270D01*
X006582Y003374D02*
X006562Y003374D01*
X006488Y003362D01*
X006417Y003339D01*
X006350Y003305D01*
X006289Y003261D01*
X006236Y003207D01*
X006192Y003147D01*
X006158Y003080D01*
X006135Y003009D01*
X006123Y002934D01*
X006123Y002618D01*
X006582Y002618D01*
X006582Y003374D01*
X006302Y003270D02*
X005841Y003270D01*
X005847Y003267D02*
X005687Y003334D01*
X005513Y003334D01*
X005353Y003267D01*
X005230Y003144D01*
X005163Y002984D01*
X005163Y002216D01*
X005230Y002056D01*
X005353Y001933D01*
X005513Y001866D01*
X005687Y001866D01*
X005847Y001933D01*
X005970Y002056D01*
X006037Y002216D01*
X006037Y002984D01*
X005970Y003144D01*
X005847Y003267D01*
X005984Y003112D02*
X006174Y003112D01*
X006126Y002953D02*
X006037Y002953D01*
X006037Y002795D02*
X006123Y002795D01*
X006123Y002636D02*
X006037Y002636D01*
X006123Y002582D02*
X006123Y002266D01*
X006135Y002191D01*
X006158Y002120D01*
X006192Y002053D01*
X006236Y001993D01*
X006289Y001939D01*
X006350Y001895D01*
X006417Y001861D01*
X006488Y001838D01*
X006562Y001826D01*
X006582Y001826D01*
X006582Y002582D01*
X006123Y002582D01*
X006123Y002478D02*
X006037Y002478D01*
X006037Y002319D02*
X006123Y002319D01*
X006145Y002161D02*
X006014Y002161D01*
X005917Y002002D02*
X006229Y002002D01*
X006472Y001844D02*
X004080Y001844D01*
X004156Y002002D02*
X005283Y002002D01*
X005186Y002161D02*
X004214Y002161D01*
X004205Y002105D02*
X004280Y002600D01*
X004205Y003095D01*
X004205Y003095D01*
X003988Y003546D01*
X003988Y003546D01*
X003647Y003913D01*
X003214Y004164D01*
X003214Y004164D01*
X002726Y004275D01*
X002726Y004275D01*
X002226Y004238D01*
X001760Y004055D01*
X001368Y003743D01*
X001086Y003329D01*
X000939Y002850D01*
X000939Y002350D01*
X001086Y001871D01*
X001368Y001457D01*
X001368Y001457D01*
X001368Y001457D01*
X001760Y001145D01*
X002226Y000962D01*
X002226Y000962D01*
X002726Y000925D01*
X003214Y001036D01*
X003647Y001287D01*
X003988Y001654D01*
X004205Y002105D01*
X004205Y002105D01*
X004238Y002319D02*
X005163Y002319D01*
X005163Y002478D02*
X004262Y002478D01*
X004275Y002636D02*
X005163Y002636D01*
X005163Y002795D02*
X004251Y002795D01*
X004227Y002953D02*
X005163Y002953D01*
X005216Y003112D02*
X004198Y003112D01*
X004121Y003270D02*
X005359Y003270D01*
X006582Y003112D02*
X006618Y003112D01*
X006618Y002953D02*
X006582Y002953D01*
X006582Y002795D02*
X006618Y002795D01*
X006618Y002636D02*
X006582Y002636D01*
X006582Y002478D02*
X006618Y002478D01*
X006618Y002319D02*
X006582Y002319D01*
X006582Y002161D02*
X006618Y002161D01*
X006618Y002002D02*
X006582Y002002D01*
X006582Y001844D02*
X006618Y001844D01*
X006728Y001844D02*
X010100Y001844D01*
X010100Y002002D02*
X008917Y002002D01*
X009014Y002161D02*
X010100Y002161D01*
X010100Y001685D02*
X004003Y001685D01*
X003988Y001654D02*
X003988Y001654D01*
X003870Y001527D02*
X010100Y001527D01*
X010100Y001368D02*
X003723Y001368D01*
X003647Y001287D02*
X003647Y001287D01*
X003647Y001287D01*
X003514Y001210D02*
X010100Y001210D01*
X010100Y001051D02*
X003240Y001051D01*
X003214Y001036D02*
X003214Y001036D01*
X002726Y000925D02*
X002726Y000925D01*
X002000Y001051D02*
X000600Y001051D01*
X000600Y000893D02*
X010100Y000893D01*
X010100Y000734D02*
X000600Y000734D01*
X000600Y001210D02*
X001679Y001210D01*
X001760Y001145D02*
X001760Y001145D01*
X001480Y001368D02*
X000600Y001368D01*
X000600Y001527D02*
X001321Y001527D01*
X001213Y001685D02*
X000600Y001685D01*
X000600Y001844D02*
X001105Y001844D01*
X001086Y001871D02*
X001086Y001871D01*
X001046Y002002D02*
X000600Y002002D01*
X000600Y002161D02*
X000997Y002161D01*
X000948Y002319D02*
X000600Y002319D01*
X000600Y002478D02*
X000939Y002478D01*
X000939Y002636D02*
X000600Y002636D01*
X000600Y002795D02*
X000939Y002795D01*
X000970Y002953D02*
X000600Y002953D01*
X000600Y003112D02*
X001019Y003112D01*
X001068Y003270D02*
X000600Y003270D01*
X000600Y003429D02*
X001154Y003429D01*
X001086Y003329D02*
X001086Y003329D01*
X001262Y003587D02*
X000600Y003587D01*
X000600Y003746D02*
X001372Y003746D01*
X001368Y003743D02*
X001368Y003743D01*
X001368Y003743D01*
X001571Y003904D02*
X000600Y003904D01*
X000600Y004063D02*
X001779Y004063D01*
X001760Y004055D02*
X001760Y004055D01*
X002183Y004221D02*
X000600Y004221D01*
X000600Y004380D02*
X009828Y004380D01*
X009728Y004221D02*
X002963Y004221D01*
X003389Y004063D02*
X009710Y004063D01*
X009710Y003904D02*
X003656Y003904D01*
X003647Y003913D02*
X003647Y003913D01*
X003803Y003746D02*
X009710Y003746D01*
X009710Y003587D02*
X003950Y003587D01*
X004045Y003429D02*
X009710Y003429D01*
X009710Y003270D02*
X008841Y003270D01*
X008984Y003112D02*
X009710Y003112D01*
X010600Y003600D02*
X024600Y003600D01*
X024600Y000600D01*
X010600Y000600D01*
X010600Y003600D01*
X010773Y004221D02*
X026183Y004221D01*
X026963Y004221D02*
X028600Y004221D01*
X028600Y004380D02*
X010931Y004380D01*
X011090Y004538D02*
X028600Y004538D01*
X028600Y004697D02*
X011248Y004697D01*
X011407Y004855D02*
X017793Y004855D01*
X017769Y004879D02*
X017879Y004769D01*
X018022Y004710D01*
X023178Y004710D01*
X023321Y004769D01*
X023431Y004879D01*
X023490Y005022D01*
X023490Y009178D01*
X023431Y009321D01*
X022490Y010262D01*
X022490Y013964D01*
X022512Y013964D01*
X022594Y014046D01*
X022594Y014989D01*
X022512Y015071D01*
X021570Y015071D01*
X021488Y014989D01*
X021488Y014046D01*
X021570Y013964D01*
X021710Y013964D01*
X021710Y010022D01*
X021769Y009879D01*
X021879Y009769D01*
X022710Y008938D01*
X022710Y005490D01*
X018262Y005490D01*
X017863Y005889D01*
X017917Y005861D01*
X017988Y005838D01*
X018062Y005826D01*
X018082Y005826D01*
X018082Y006582D01*
X017623Y006582D01*
X017623Y006266D01*
X017635Y006191D01*
X017658Y006120D01*
X017686Y006066D01*
X017536Y006215D01*
X017537Y006216D01*
X017537Y006984D01*
X017470Y007144D01*
X017347Y007267D01*
X017187Y007334D01*
X017013Y007334D01*
X016853Y007267D01*
X016730Y007144D01*
X016663Y006984D01*
X016663Y006216D01*
X016710Y006103D01*
X016710Y006022D01*
X016769Y005879D01*
X017769Y004879D01*
X017635Y005014D02*
X011565Y005014D01*
X011724Y005172D02*
X017476Y005172D01*
X017318Y005331D02*
X013382Y005331D01*
X013476Y005489D02*
X017159Y005489D01*
X017001Y005648D02*
X013490Y005648D01*
X013490Y005806D02*
X016842Y005806D01*
X016734Y005965D02*
X013490Y005965D01*
X013490Y006123D02*
X016702Y006123D01*
X016663Y006282D02*
X013490Y006282D01*
X013490Y006440D02*
X016663Y006440D01*
X016663Y006599D02*
X013490Y006599D01*
X013490Y006757D02*
X016663Y006757D01*
X016663Y006916D02*
X013490Y006916D01*
X013490Y007074D02*
X016701Y007074D01*
X016818Y007233D02*
X013490Y007233D01*
X013490Y007391D02*
X020210Y007391D01*
X020210Y007233D02*
X018439Y007233D01*
X018464Y007207D02*
X018411Y007261D01*
X018350Y007305D01*
X018283Y007339D01*
X018212Y007362D01*
X018138Y007374D01*
X018118Y007374D01*
X018118Y006618D01*
X018082Y006618D01*
X018082Y006582D01*
X018118Y006582D01*
X018118Y006618D01*
X018577Y006618D01*
X018577Y006934D01*
X018565Y007009D01*
X018542Y007080D01*
X018508Y007147D01*
X018464Y007207D01*
X018544Y007074D02*
X020210Y007074D01*
X020210Y007022D02*
X020269Y006879D01*
X020379Y006769D01*
X020663Y006485D01*
X020663Y006216D01*
X020730Y006056D01*
X020853Y005933D01*
X021013Y005866D01*
X021187Y005866D01*
X021347Y005933D01*
X021470Y006056D01*
X021537Y006216D01*
X021537Y006984D01*
X021470Y007144D01*
X021347Y007267D01*
X021187Y007334D01*
X021013Y007334D01*
X020990Y007324D01*
X020990Y014596D01*
X020992Y014669D01*
X020990Y014673D01*
X020990Y014678D01*
X020962Y014745D01*
X020941Y014800D01*
X020941Y014989D01*
X020859Y015071D01*
X019916Y015071D01*
X019834Y014989D01*
X019834Y014046D01*
X019916Y013964D01*
X020210Y013964D01*
X020210Y007022D01*
X020254Y006916D02*
X018577Y006916D01*
X018577Y006757D02*
X020391Y006757D01*
X020550Y006599D02*
X018118Y006599D01*
X018118Y006582D02*
X018577Y006582D01*
X018577Y006266D01*
X018565Y006191D01*
X018542Y006120D01*
X018508Y006053D01*
X018464Y005993D01*
X018411Y005939D01*
X018350Y005895D01*
X018283Y005861D01*
X018212Y005838D01*
X018138Y005826D01*
X018118Y005826D01*
X018118Y006582D01*
X018082Y006599D02*
X017537Y006599D01*
X017623Y006618D02*
X018082Y006618D01*
X018082Y007374D01*
X018062Y007374D01*
X017988Y007362D01*
X017917Y007339D01*
X017850Y007305D01*
X017789Y007261D01*
X017736Y007207D01*
X017692Y007147D01*
X017658Y007080D01*
X017635Y007009D01*
X017623Y006934D01*
X017623Y006618D01*
X017623Y006757D02*
X017537Y006757D01*
X017537Y006916D02*
X017623Y006916D01*
X017656Y007074D02*
X017499Y007074D01*
X017382Y007233D02*
X017761Y007233D01*
X018082Y007233D02*
X018118Y007233D01*
X018118Y007074D02*
X018082Y007074D01*
X018082Y006916D02*
X018118Y006916D01*
X018118Y006757D02*
X018082Y006757D01*
X018082Y006440D02*
X018118Y006440D01*
X018118Y006282D02*
X018082Y006282D01*
X018082Y006123D02*
X018118Y006123D01*
X018118Y005965D02*
X018082Y005965D01*
X017946Y005806D02*
X022710Y005806D01*
X022710Y005648D02*
X018104Y005648D01*
X018436Y005965D02*
X020821Y005965D01*
X020702Y006123D02*
X018543Y006123D01*
X018577Y006282D02*
X020663Y006282D01*
X020663Y006440D02*
X018577Y006440D01*
X017623Y006440D02*
X017537Y006440D01*
X017537Y006282D02*
X017623Y006282D01*
X017629Y006123D02*
X017657Y006123D01*
X020210Y007550D02*
X013490Y007550D01*
X013490Y007708D02*
X020210Y007708D01*
X020210Y007867D02*
X013490Y007867D01*
X013490Y008025D02*
X020210Y008025D01*
X020210Y008184D02*
X013490Y008184D01*
X013490Y008342D02*
X020210Y008342D01*
X020210Y008501D02*
X013490Y008501D01*
X013490Y008659D02*
X020210Y008659D01*
X020210Y008818D02*
X013490Y008818D01*
X013490Y008976D02*
X020210Y008976D01*
X020210Y009135D02*
X013490Y009135D01*
X013490Y009293D02*
X020210Y009293D01*
X020210Y009452D02*
X013490Y009452D01*
X013490Y009610D02*
X020210Y009610D01*
X020210Y009769D02*
X013490Y009769D01*
X013490Y009927D02*
X016867Y009927D01*
X016853Y009933D02*
X017013Y009866D01*
X017187Y009866D01*
X017347Y009933D01*
X017470Y010056D01*
X017537Y010216D01*
X017537Y010984D01*
X017470Y011144D01*
X017347Y011267D01*
X017187Y011334D01*
X017013Y011334D01*
X016853Y011267D01*
X016730Y011144D01*
X016666Y010990D01*
X014490Y010990D01*
X014490Y014572D01*
X014497Y014620D01*
X014490Y014649D01*
X014490Y014678D01*
X014471Y014723D01*
X014459Y014771D01*
X014442Y014794D01*
X014431Y014821D01*
X014396Y014856D01*
X014366Y014895D01*
X014341Y014910D01*
X014327Y014925D01*
X014327Y014989D01*
X014245Y015071D01*
X013302Y015071D01*
X013220Y014989D01*
X013220Y014046D01*
X013302Y013964D01*
X013710Y013964D01*
X013710Y010522D01*
X013769Y010379D01*
X013879Y010269D01*
X014022Y010210D01*
X016666Y010210D01*
X016730Y010056D01*
X016853Y009933D01*
X016717Y010086D02*
X013490Y010086D01*
X013490Y010244D02*
X013940Y010244D01*
X013760Y010403D02*
X013490Y010403D01*
X013490Y010561D02*
X013710Y010561D01*
X013710Y010720D02*
X013490Y010720D01*
X013490Y010878D02*
X013710Y010878D01*
X013710Y011037D02*
X013490Y011037D01*
X013490Y011195D02*
X013710Y011195D01*
X013710Y011354D02*
X013490Y011354D01*
X013490Y011512D02*
X013710Y011512D01*
X013710Y011671D02*
X013490Y011671D01*
X013423Y011829D02*
X013710Y011829D01*
X013710Y011988D02*
X013264Y011988D01*
X013106Y012146D02*
X013710Y012146D01*
X013710Y012305D02*
X012947Y012305D01*
X012789Y012463D02*
X013710Y012463D01*
X013710Y012622D02*
X012630Y012622D01*
X012472Y012780D02*
X013710Y012780D01*
X013710Y012939D02*
X012313Y012939D01*
X012155Y013097D02*
X013710Y013097D01*
X013710Y013256D02*
X011996Y013256D01*
X011838Y013414D02*
X013710Y013414D01*
X013710Y013573D02*
X011679Y013573D01*
X011521Y013731D02*
X013710Y013731D01*
X013710Y013890D02*
X011362Y013890D01*
X011204Y014048D02*
X011535Y014048D01*
X011539Y014034D02*
X011562Y013993D01*
X011596Y013960D01*
X011637Y013936D01*
X011683Y013924D01*
X012062Y013924D01*
X012062Y014460D01*
X011526Y014460D01*
X011526Y014080D01*
X011539Y014034D01*
X011526Y014207D02*
X011045Y014207D01*
X011020Y014365D02*
X011526Y014365D01*
X011526Y014575D02*
X012062Y014575D01*
X012062Y014460D01*
X012177Y014460D01*
X012177Y013924D01*
X012557Y013924D01*
X012603Y013936D01*
X012644Y013960D01*
X012677Y013993D01*
X012701Y014034D01*
X012713Y014080D01*
X012713Y014460D01*
X012177Y014460D01*
X012177Y014575D01*
X012062Y014575D01*
X012062Y015111D01*
X011683Y015111D01*
X011637Y015098D01*
X011596Y015075D01*
X011562Y015041D01*
X011539Y015000D01*
X011526Y014954D01*
X011526Y014575D01*
X011526Y014682D02*
X011020Y014682D01*
X011020Y014524D02*
X012062Y014524D01*
X012177Y014524D02*
X013220Y014524D01*
X013220Y014682D02*
X012713Y014682D01*
X012713Y014575D02*
X012713Y014954D01*
X012701Y015000D01*
X012677Y015041D01*
X012644Y015075D01*
X012603Y015098D01*
X012557Y015111D01*
X012177Y015111D01*
X012177Y014575D01*
X012713Y014575D01*
X012713Y014365D02*
X013220Y014365D01*
X013220Y014207D02*
X012713Y014207D01*
X012704Y014048D02*
X013220Y014048D01*
X013220Y014841D02*
X012713Y014841D01*
X012701Y014999D02*
X013230Y014999D01*
X012177Y014999D02*
X012062Y014999D01*
X012062Y014841D02*
X012177Y014841D01*
X012177Y014682D02*
X012062Y014682D01*
X012062Y014365D02*
X012177Y014365D01*
X012177Y014207D02*
X012062Y014207D01*
X012062Y014048D02*
X012177Y014048D01*
X011526Y014841D02*
X011020Y014841D01*
X011009Y014999D02*
X011538Y014999D01*
X011683Y016089D02*
X012062Y016089D01*
X012062Y016625D01*
X011526Y016625D01*
X011526Y016246D01*
X011539Y016200D01*
X011562Y016159D01*
X011596Y016125D01*
X011637Y016102D01*
X011683Y016089D01*
X011625Y016109D02*
X009643Y016109D01*
X009490Y016267D02*
X009913Y016267D01*
X009913Y016211D02*
X009995Y016129D01*
X010938Y016129D01*
X011020Y016211D01*
X011020Y017154D01*
X010938Y017236D01*
X009995Y017236D01*
X009913Y017154D01*
X009913Y016211D01*
X009913Y016426D02*
X009490Y016426D01*
X009494Y016584D02*
X009913Y016584D01*
X009913Y016743D02*
X009467Y016743D01*
X009366Y016901D02*
X009913Y016901D01*
X009913Y017060D02*
X009366Y017060D01*
X009302Y017218D02*
X009977Y017218D01*
X010956Y017218D02*
X011574Y017218D01*
X011562Y017207D02*
X011539Y017166D01*
X011526Y017120D01*
X011526Y016740D01*
X012062Y016740D01*
X012062Y016625D01*
X012177Y016625D01*
X012177Y016089D01*
X012557Y016089D01*
X012603Y016102D01*
X012644Y016125D01*
X012677Y016159D01*
X012701Y016200D01*
X012713Y016246D01*
X012713Y016625D01*
X012177Y016625D01*
X012177Y016740D01*
X012713Y016740D01*
X012713Y017120D01*
X012701Y017166D01*
X012677Y017207D01*
X012644Y017240D01*
X012603Y017264D01*
X012557Y017276D01*
X012177Y017276D01*
X012177Y016740D01*
X012062Y016740D01*
X012062Y017276D01*
X011683Y017276D01*
X011637Y017264D01*
X011596Y017240D01*
X011562Y017207D01*
X011526Y017060D02*
X011020Y017060D01*
X011020Y016901D02*
X011526Y016901D01*
X011526Y016743D02*
X011020Y016743D01*
X011020Y016584D02*
X011526Y016584D01*
X011526Y016426D02*
X011020Y016426D01*
X011020Y016267D02*
X011526Y016267D01*
X012062Y016267D02*
X012177Y016267D01*
X012177Y016109D02*
X012062Y016109D01*
X012062Y016426D02*
X012177Y016426D01*
X012177Y016584D02*
X012062Y016584D01*
X012062Y016743D02*
X012177Y016743D01*
X012177Y016901D02*
X012062Y016901D01*
X012062Y017060D02*
X012177Y017060D01*
X012177Y017218D02*
X012062Y017218D01*
X012666Y017218D02*
X013227Y017218D01*
X013216Y017207D02*
X013192Y017166D01*
X013180Y017120D01*
X013180Y016740D01*
X013715Y016740D01*
X013715Y016625D01*
X013180Y016625D01*
X013180Y016246D01*
X013192Y016200D01*
X013216Y016159D01*
X013249Y016125D01*
X013290Y016102D01*
X013336Y016089D01*
X013715Y016089D01*
X013715Y016625D01*
X013831Y016625D01*
X013831Y016740D01*
X014367Y016740D01*
X014367Y017120D01*
X014354Y017166D01*
X014331Y017207D01*
X014297Y017240D01*
X014256Y017264D01*
X014210Y017276D01*
X013831Y017276D01*
X013831Y016740D01*
X013715Y016740D01*
X013715Y017276D01*
X013336Y017276D01*
X013290Y017264D01*
X013249Y017240D01*
X013216Y017207D01*
X013180Y017060D02*
X012713Y017060D01*
X012713Y016901D02*
X013180Y016901D01*
X013180Y016743D02*
X012713Y016743D01*
X012713Y016584D02*
X013180Y016584D01*
X013180Y016426D02*
X012713Y016426D01*
X012713Y016267D02*
X013180Y016267D01*
X013278Y016109D02*
X012615Y016109D01*
X013715Y016109D02*
X013831Y016109D01*
X013831Y016089D02*
X014210Y016089D01*
X014256Y016102D01*
X014297Y016125D01*
X014331Y016159D01*
X014354Y016200D01*
X014367Y016246D01*
X014367Y016625D01*
X013831Y016625D01*
X013831Y016089D01*
X013831Y016267D02*
X013715Y016267D01*
X013715Y016426D02*
X013831Y016426D01*
X013831Y016584D02*
X013715Y016584D01*
X013715Y016743D02*
X013831Y016743D01*
X013831Y016901D02*
X013715Y016901D01*
X013715Y017060D02*
X013831Y017060D01*
X013831Y017218D02*
X013715Y017218D01*
X014319Y017218D02*
X014881Y017218D01*
X014869Y017207D02*
X014846Y017166D01*
X014833Y017120D01*
X014833Y016740D01*
X015369Y016740D01*
X015369Y016625D01*
X014833Y016625D01*
X014833Y016246D01*
X014846Y016200D01*
X014869Y016159D01*
X014903Y016125D01*
X014944Y016102D01*
X014990Y016089D01*
X015369Y016089D01*
X015369Y016625D01*
X015485Y016625D01*
X015485Y016740D01*
X016020Y016740D01*
X016020Y017120D01*
X016008Y017166D01*
X015984Y017207D01*
X015951Y017240D01*
X015910Y017264D01*
X015864Y017276D01*
X015485Y017276D01*
X015485Y016740D01*
X015369Y016740D01*
X015369Y017276D01*
X014990Y017276D01*
X014944Y017264D01*
X014903Y017240D01*
X014869Y017207D01*
X014833Y017060D02*
X014367Y017060D01*
X014367Y016901D02*
X014833Y016901D01*
X014833Y016743D02*
X014367Y016743D01*
X014367Y016584D02*
X014833Y016584D01*
X014833Y016426D02*
X014367Y016426D01*
X014367Y016267D02*
X014833Y016267D01*
X014932Y016109D02*
X014268Y016109D01*
X015369Y016109D02*
X015485Y016109D01*
X015485Y016089D02*
X015864Y016089D01*
X015910Y016102D01*
X015951Y016125D01*
X015984Y016159D01*
X016008Y016200D01*
X016020Y016246D01*
X016020Y016625D01*
X015485Y016625D01*
X015485Y016089D01*
X015485Y016267D02*
X015369Y016267D01*
X015369Y016426D02*
X015485Y016426D01*
X015485Y016584D02*
X015369Y016584D01*
X015369Y016743D02*
X015485Y016743D01*
X015485Y016901D02*
X015369Y016901D01*
X015369Y017060D02*
X015485Y017060D01*
X015485Y017218D02*
X015369Y017218D01*
X015973Y017218D02*
X016591Y017218D01*
X016609Y017236D02*
X016527Y017154D01*
X016527Y016211D01*
X016609Y016129D01*
X017552Y016129D01*
X017634Y016211D01*
X017634Y017154D01*
X017552Y017236D01*
X016609Y017236D01*
X016527Y017060D02*
X016020Y017060D01*
X016020Y016901D02*
X016527Y016901D01*
X016527Y016743D02*
X016020Y016743D01*
X016020Y016584D02*
X016527Y016584D01*
X016527Y016426D02*
X016020Y016426D01*
X016020Y016267D02*
X016527Y016267D01*
X015922Y016109D02*
X018239Y016109D01*
X018251Y016102D02*
X018297Y016089D01*
X018676Y016089D01*
X018676Y016625D01*
X018140Y016625D01*
X018140Y016246D01*
X018153Y016200D01*
X018176Y016159D01*
X018210Y016125D01*
X018251Y016102D01*
X018140Y016267D02*
X017634Y016267D01*
X017634Y016426D02*
X018140Y016426D01*
X018140Y016584D02*
X017634Y016584D01*
X017634Y016743D02*
X018140Y016743D01*
X018140Y016740D02*
X018676Y016740D01*
X018676Y016625D01*
X018792Y016625D01*
X018792Y016740D01*
X019327Y016740D01*
X019327Y017120D01*
X019315Y017166D01*
X019291Y017207D01*
X019258Y017240D01*
X019217Y017264D01*
X019171Y017276D01*
X018792Y017276D01*
X018792Y016740D01*
X018676Y016740D01*
X018676Y017276D01*
X018297Y017276D01*
X018251Y017264D01*
X018210Y017240D01*
X018176Y017207D01*
X018153Y017166D01*
X018140Y017120D01*
X018140Y016740D01*
X018140Y016901D02*
X017634Y016901D01*
X017634Y017060D02*
X018140Y017060D01*
X018188Y017218D02*
X017570Y017218D01*
X018676Y017218D02*
X018792Y017218D01*
X018792Y017060D02*
X018676Y017060D01*
X018676Y016901D02*
X018792Y016901D01*
X018792Y016743D02*
X018676Y016743D01*
X018676Y016584D02*
X018792Y016584D01*
X018792Y016625D02*
X018792Y016089D01*
X019171Y016089D01*
X019217Y016102D01*
X019258Y016125D01*
X019291Y016159D01*
X019315Y016200D01*
X019327Y016246D01*
X019327Y016625D01*
X018792Y016625D01*
X018792Y016426D02*
X018676Y016426D01*
X018676Y016267D02*
X018792Y016267D01*
X018792Y016109D02*
X018676Y016109D01*
X019229Y016109D02*
X021710Y016109D01*
X021710Y016129D02*
X021710Y016022D01*
X021769Y015879D01*
X021879Y015769D01*
X024710Y012938D01*
X024710Y009762D01*
X024269Y009321D01*
X024210Y009178D01*
X024210Y007022D01*
X024269Y006879D01*
X024379Y006769D01*
X024663Y006485D01*
X024663Y006216D01*
X024730Y006056D01*
X024853Y005933D01*
X025013Y005866D01*
X025187Y005866D01*
X025347Y005933D01*
X025470Y006056D01*
X025537Y006216D01*
X025537Y006984D01*
X025470Y007144D01*
X025347Y007267D01*
X025187Y007334D01*
X025013Y007334D01*
X024990Y007324D01*
X024990Y008938D01*
X025321Y009269D01*
X025431Y009379D01*
X025490Y009522D01*
X025490Y013178D01*
X025431Y013321D01*
X022567Y016184D01*
X022594Y016211D01*
X022594Y017154D01*
X022512Y017236D01*
X021570Y017236D01*
X021488Y017154D01*
X021488Y016211D01*
X021570Y016129D01*
X021710Y016129D01*
X021740Y015950D02*
X009802Y015950D01*
X009943Y015792D02*
X021857Y015792D01*
X022015Y015633D02*
X009990Y015633D01*
X009990Y015475D02*
X022174Y015475D01*
X022332Y015316D02*
X009990Y015316D01*
X009990Y015158D02*
X022491Y015158D01*
X022584Y014999D02*
X022649Y014999D01*
X022594Y014841D02*
X022808Y014841D01*
X022966Y014682D02*
X022594Y014682D01*
X022594Y014524D02*
X023125Y014524D01*
X023283Y014365D02*
X022594Y014365D01*
X022594Y014207D02*
X023442Y014207D01*
X023600Y014048D02*
X022594Y014048D01*
X022490Y013890D02*
X023759Y013890D01*
X023917Y013731D02*
X022490Y013731D01*
X022490Y013573D02*
X024076Y013573D01*
X024234Y013414D02*
X022490Y013414D01*
X022490Y013256D02*
X024393Y013256D01*
X024551Y013097D02*
X022490Y013097D01*
X022490Y012939D02*
X024710Y012939D01*
X024710Y012780D02*
X022490Y012780D01*
X022490Y012622D02*
X024710Y012622D01*
X024710Y012463D02*
X022490Y012463D01*
X022490Y012305D02*
X024710Y012305D01*
X024710Y012146D02*
X022490Y012146D01*
X022490Y011988D02*
X024710Y011988D01*
X024710Y011829D02*
X022490Y011829D01*
X022490Y011671D02*
X024710Y011671D01*
X024710Y011512D02*
X022490Y011512D01*
X022490Y011354D02*
X023962Y011354D01*
X023988Y011362D02*
X023917Y011339D01*
X023850Y011305D01*
X023789Y011261D01*
X023736Y011207D01*
X023692Y011147D01*
X023658Y011080D01*
X023635Y011009D01*
X023623Y010934D01*
X023623Y010618D01*
X024082Y010618D01*
X024082Y010582D01*
X024118Y010582D01*
X024118Y010618D01*
X024577Y010618D01*
X024577Y010934D01*
X024565Y011009D01*
X024542Y011080D01*
X024508Y011147D01*
X024464Y011207D01*
X024411Y011261D01*
X024350Y011305D01*
X024283Y011339D01*
X024212Y011362D01*
X024138Y011374D01*
X024118Y011374D01*
X024118Y010618D01*
X024082Y010618D01*
X024082Y011374D01*
X024062Y011374D01*
X023988Y011362D01*
X024082Y011354D02*
X024118Y011354D01*
X024238Y011354D02*
X024710Y011354D01*
X024710Y011195D02*
X024473Y011195D01*
X024556Y011037D02*
X024710Y011037D01*
X024710Y010878D02*
X024577Y010878D01*
X024577Y010720D02*
X024710Y010720D01*
X024710Y010561D02*
X024577Y010561D01*
X024577Y010582D02*
X024118Y010582D01*
X024118Y009826D01*
X024138Y009826D01*
X024212Y009838D01*
X024283Y009861D01*
X024350Y009895D01*
X024411Y009939D01*
X024464Y009993D01*
X024508Y010053D01*
X024542Y010120D01*
X024565Y010191D01*
X024577Y010266D01*
X024577Y010582D01*
X024577Y010403D02*
X024710Y010403D01*
X024710Y010244D02*
X024573Y010244D01*
X024524Y010086D02*
X024710Y010086D01*
X024710Y009927D02*
X024394Y009927D01*
X024118Y009927D02*
X024082Y009927D01*
X024082Y009826D02*
X024082Y010582D01*
X023623Y010582D01*
X023623Y010266D01*
X023635Y010191D01*
X023658Y010120D01*
X023692Y010053D01*
X023736Y009993D01*
X023789Y009939D01*
X023850Y009895D01*
X023917Y009861D01*
X023988Y009838D01*
X024062Y009826D01*
X024082Y009826D01*
X023806Y009927D02*
X023333Y009927D01*
X023347Y009933D02*
X023470Y010056D01*
X023537Y010216D01*
X023537Y010984D01*
X023470Y011144D01*
X023347Y011267D01*
X023187Y011334D01*
X023013Y011334D01*
X022853Y011267D01*
X022730Y011144D01*
X022663Y010984D01*
X022663Y010216D01*
X022730Y010056D01*
X022853Y009933D01*
X023013Y009866D01*
X023187Y009866D01*
X023347Y009933D01*
X023483Y010086D02*
X023676Y010086D01*
X023627Y010244D02*
X023537Y010244D01*
X023537Y010403D02*
X023623Y010403D01*
X023623Y010561D02*
X023537Y010561D01*
X023537Y010720D02*
X023623Y010720D01*
X023623Y010878D02*
X023537Y010878D01*
X023515Y011037D02*
X023644Y011037D01*
X023727Y011195D02*
X023420Y011195D01*
X022780Y011195D02*
X022490Y011195D01*
X022490Y011037D02*
X022685Y011037D01*
X022663Y010878D02*
X022490Y010878D01*
X022490Y010720D02*
X022663Y010720D01*
X022663Y010561D02*
X022490Y010561D01*
X022490Y010403D02*
X022663Y010403D01*
X022663Y010244D02*
X022508Y010244D01*
X022666Y010086D02*
X022717Y010086D01*
X022825Y009927D02*
X022867Y009927D01*
X022983Y009769D02*
X024710Y009769D01*
X024558Y009610D02*
X023142Y009610D01*
X023300Y009452D02*
X024400Y009452D01*
X024258Y009293D02*
X023442Y009293D01*
X023490Y009135D02*
X024210Y009135D01*
X024210Y008976D02*
X023490Y008976D01*
X023490Y008818D02*
X024210Y008818D01*
X024210Y008659D02*
X023490Y008659D01*
X023490Y008501D02*
X024210Y008501D01*
X024210Y008342D02*
X023490Y008342D01*
X023490Y008184D02*
X024210Y008184D01*
X024210Y008025D02*
X023490Y008025D01*
X023490Y007867D02*
X024210Y007867D01*
X024210Y007708D02*
X023490Y007708D01*
X023490Y007550D02*
X024210Y007550D01*
X024210Y007391D02*
X023490Y007391D01*
X023490Y007233D02*
X024210Y007233D01*
X024210Y007074D02*
X023490Y007074D01*
X023490Y006916D02*
X024254Y006916D01*
X024391Y006757D02*
X023490Y006757D01*
X023490Y006599D02*
X024550Y006599D01*
X024663Y006440D02*
X023490Y006440D01*
X023490Y006282D02*
X024663Y006282D01*
X024702Y006123D02*
X023490Y006123D01*
X023490Y005965D02*
X024821Y005965D01*
X025379Y005965D02*
X025764Y005965D01*
X025789Y005939D02*
X025850Y005895D01*
X025917Y005861D01*
X025988Y005838D01*
X026062Y005826D01*
X026082Y005826D01*
X026082Y006582D01*
X026118Y006582D01*
X026118Y006618D01*
X026577Y006618D01*
X026577Y006934D01*
X026565Y007009D01*
X026542Y007080D01*
X026508Y007147D01*
X026464Y007207D01*
X026411Y007261D01*
X026350Y007305D01*
X026283Y007339D01*
X026212Y007362D01*
X026138Y007374D01*
X026118Y007374D01*
X026118Y006618D01*
X026082Y006618D01*
X026082Y006582D01*
X025623Y006582D01*
X025623Y006266D01*
X025635Y006191D01*
X025658Y006120D01*
X025692Y006053D01*
X025736Y005993D01*
X025789Y005939D01*
X025657Y006123D02*
X025498Y006123D01*
X025537Y006282D02*
X025623Y006282D01*
X025623Y006440D02*
X025537Y006440D01*
X025537Y006599D02*
X026082Y006599D01*
X026082Y006618D02*
X025623Y006618D01*
X025623Y006934D01*
X025635Y007009D01*
X025658Y007080D01*
X025692Y007147D01*
X025736Y007207D01*
X025789Y007261D01*
X025850Y007305D01*
X025917Y007339D01*
X025988Y007362D01*
X026062Y007374D01*
X026082Y007374D01*
X026082Y006618D01*
X026118Y006599D02*
X028600Y006599D01*
X028600Y006757D02*
X026577Y006757D01*
X026577Y006916D02*
X028600Y006916D01*
X028600Y007074D02*
X026544Y007074D01*
X026439Y007233D02*
X028600Y007233D01*
X028600Y007391D02*
X024990Y007391D01*
X024990Y007550D02*
X028600Y007550D01*
X028600Y007708D02*
X024990Y007708D01*
X024990Y007867D02*
X028600Y007867D01*
X028600Y008025D02*
X024990Y008025D01*
X024990Y008184D02*
X028600Y008184D01*
X028600Y008342D02*
X024990Y008342D01*
X024990Y008501D02*
X028600Y008501D01*
X028600Y008659D02*
X024990Y008659D01*
X024990Y008818D02*
X028600Y008818D01*
X028600Y008976D02*
X025028Y008976D01*
X025186Y009135D02*
X028600Y009135D01*
X028600Y009293D02*
X025345Y009293D01*
X025461Y009452D02*
X028600Y009452D01*
X028600Y009610D02*
X025490Y009610D01*
X025490Y009769D02*
X028600Y009769D01*
X028600Y009927D02*
X025490Y009927D01*
X025490Y010086D02*
X028600Y010086D01*
X028600Y010244D02*
X025490Y010244D01*
X025490Y010403D02*
X028600Y010403D01*
X028600Y010561D02*
X025490Y010561D01*
X025490Y010720D02*
X028600Y010720D01*
X028600Y010878D02*
X025490Y010878D01*
X025490Y011037D02*
X028600Y011037D01*
X028600Y011195D02*
X025490Y011195D01*
X025490Y011354D02*
X028600Y011354D01*
X028600Y011512D02*
X025490Y011512D01*
X025490Y011671D02*
X028600Y011671D01*
X028600Y011829D02*
X025490Y011829D01*
X025490Y011988D02*
X028600Y011988D01*
X028600Y012146D02*
X025490Y012146D01*
X025490Y012305D02*
X028600Y012305D01*
X028600Y012463D02*
X025490Y012463D01*
X025490Y012622D02*
X028600Y012622D01*
X028600Y012780D02*
X025490Y012780D01*
X025490Y012939D02*
X028600Y012939D01*
X028600Y013097D02*
X025490Y013097D01*
X025458Y013256D02*
X028600Y013256D01*
X028600Y013414D02*
X025338Y013414D01*
X025179Y013573D02*
X028600Y013573D01*
X028600Y013731D02*
X025021Y013731D01*
X024862Y013890D02*
X028600Y013890D01*
X028600Y014048D02*
X024704Y014048D01*
X024545Y014207D02*
X028600Y014207D01*
X028600Y014365D02*
X024387Y014365D01*
X024228Y014524D02*
X028600Y014524D01*
X028600Y014682D02*
X024070Y014682D01*
X023911Y014841D02*
X028600Y014841D01*
X028600Y014999D02*
X023753Y014999D01*
X023594Y015158D02*
X028600Y015158D01*
X028600Y015316D02*
X023436Y015316D01*
X023277Y015475D02*
X026195Y015475D01*
X026226Y015462D02*
X026226Y015462D01*
X025760Y015645D01*
X025760Y015645D01*
X025368Y015957D01*
X025368Y015957D01*
X025368Y015957D01*
X025086Y016371D01*
X025086Y016371D01*
X024939Y016850D01*
X024939Y017350D01*
X025086Y017829D01*
X025086Y017829D01*
X025368Y018243D01*
X025368Y018243D01*
X025760Y018555D01*
X025760Y018555D01*
X026226Y018738D01*
X026226Y018738D01*
X026726Y018775D01*
X026726Y018775D01*
X027214Y018664D01*
X027214Y018664D01*
X027647Y018413D01*
X027647Y018413D01*
X027988Y018046D01*
X027988Y018046D01*
X028205Y017595D01*
X028280Y017100D01*
X028205Y016605D01*
X028205Y016605D01*
X027988Y016154D01*
X027647Y015787D01*
X027647Y015787D01*
X027214Y015536D01*
X026726Y015425D01*
X026726Y015425D01*
X026226Y015462D01*
X025791Y015633D02*
X023119Y015633D01*
X022960Y015792D02*
X023592Y015792D01*
X023455Y015848D02*
X023738Y015731D01*
X024045Y015731D01*
X024328Y015848D01*
X024545Y016065D01*
X024662Y016348D01*
X024662Y016655D01*
X024545Y016938D01*
X024328Y017155D01*
X024045Y017272D01*
X023738Y017272D01*
X023455Y017155D01*
X023238Y016938D01*
X023121Y016655D01*
X023121Y016348D01*
X023238Y016065D01*
X023455Y015848D01*
X023353Y015950D02*
X022802Y015950D01*
X022643Y016109D02*
X023220Y016109D01*
X023154Y016267D02*
X022594Y016267D01*
X022594Y016426D02*
X023121Y016426D01*
X023121Y016584D02*
X022594Y016584D01*
X022594Y016743D02*
X023157Y016743D01*
X023223Y016901D02*
X022594Y016901D01*
X022594Y017060D02*
X023360Y017060D01*
X023607Y017218D02*
X022530Y017218D01*
X021552Y017218D02*
X020877Y017218D01*
X020859Y017236D02*
X019916Y017236D01*
X019834Y017154D01*
X019834Y016211D01*
X019916Y016129D01*
X020859Y016129D01*
X020941Y016211D01*
X020941Y017154D01*
X020859Y017236D01*
X020941Y017060D02*
X021488Y017060D01*
X021488Y016901D02*
X020941Y016901D01*
X020941Y016743D02*
X021488Y016743D01*
X021488Y016584D02*
X020941Y016584D01*
X020941Y016426D02*
X021488Y016426D01*
X021488Y016267D02*
X020941Y016267D01*
X019834Y016267D02*
X019327Y016267D01*
X019327Y016426D02*
X019834Y016426D01*
X019834Y016584D02*
X019327Y016584D01*
X019327Y016743D02*
X019834Y016743D01*
X019834Y016901D02*
X019327Y016901D01*
X019327Y017060D02*
X019834Y017060D01*
X019898Y017218D02*
X019280Y017218D01*
X019171Y015111D02*
X018792Y015111D01*
X018792Y014575D01*
X018792Y014460D01*
X019327Y014460D01*
X019327Y014080D01*
X019315Y014034D01*
X019291Y013993D01*
X019258Y013960D01*
X019217Y013936D01*
X019171Y013924D01*
X018792Y013924D01*
X018792Y014460D01*
X018676Y014460D01*
X018140Y014460D01*
X018140Y014080D01*
X018153Y014034D01*
X018176Y013993D01*
X018210Y013960D01*
X018251Y013936D01*
X018297Y013924D01*
X018676Y013924D01*
X018676Y014460D01*
X018676Y014575D01*
X018140Y014575D01*
X018140Y014954D01*
X018153Y015000D01*
X018176Y015041D01*
X018210Y015075D01*
X018251Y015098D01*
X018297Y015111D01*
X018676Y015111D01*
X018676Y014575D01*
X018792Y014575D01*
X019327Y014575D01*
X019327Y014954D01*
X019315Y015000D01*
X019291Y015041D01*
X019258Y015075D01*
X019217Y015098D01*
X019171Y015111D01*
X019315Y014999D02*
X019844Y014999D01*
X019834Y014841D02*
X019327Y014841D01*
X019327Y014682D02*
X019834Y014682D01*
X019834Y014524D02*
X018792Y014524D01*
X018676Y014524D02*
X017634Y014524D01*
X017634Y014682D02*
X018140Y014682D01*
X018140Y014841D02*
X017634Y014841D01*
X017634Y014989D02*
X017552Y015071D01*
X016609Y015071D01*
X016527Y014989D01*
X016527Y014046D01*
X016609Y013964D01*
X017552Y013964D01*
X017634Y014046D01*
X017634Y014989D01*
X017623Y014999D02*
X018152Y014999D01*
X018676Y014999D02*
X018792Y014999D01*
X018792Y014841D02*
X018676Y014841D01*
X018676Y014682D02*
X018792Y014682D01*
X018792Y014365D02*
X018676Y014365D01*
X018676Y014207D02*
X018792Y014207D01*
X018792Y014048D02*
X018676Y014048D01*
X018149Y014048D02*
X017634Y014048D01*
X017634Y014207D02*
X018140Y014207D01*
X018140Y014365D02*
X017634Y014365D01*
X016527Y014365D02*
X016020Y014365D01*
X016020Y014460D02*
X016020Y014080D01*
X016008Y014034D01*
X015984Y013993D01*
X015951Y013960D01*
X015910Y013936D01*
X015864Y013924D01*
X015485Y013924D01*
X015485Y014460D01*
X015485Y014575D01*
X016020Y014575D01*
X016020Y014954D01*
X016008Y015000D01*
X015984Y015041D01*
X015951Y015075D01*
X015910Y015098D01*
X015864Y015111D01*
X015485Y015111D01*
X015485Y014575D01*
X015369Y014575D01*
X015369Y014460D01*
X014833Y014460D01*
X014833Y014080D01*
X014846Y014034D01*
X014869Y013993D01*
X014903Y013960D01*
X014944Y013936D01*
X014990Y013924D01*
X015369Y013924D01*
X015369Y014460D01*
X015485Y014460D01*
X016020Y014460D01*
X016020Y014682D02*
X016527Y014682D01*
X016527Y014524D02*
X015485Y014524D01*
X015369Y014524D02*
X014490Y014524D01*
X014488Y014682D02*
X014833Y014682D01*
X014833Y014575D02*
X015369Y014575D01*
X015369Y015111D01*
X014990Y015111D01*
X014944Y015098D01*
X014903Y015075D01*
X014869Y015041D01*
X014846Y015000D01*
X014833Y014954D01*
X014833Y014575D01*
X014833Y014365D02*
X014490Y014365D01*
X014490Y014207D02*
X014833Y014207D01*
X014842Y014048D02*
X014490Y014048D01*
X014490Y013890D02*
X020210Y013890D01*
X020210Y013731D02*
X014490Y013731D01*
X014490Y013573D02*
X020210Y013573D01*
X020210Y013414D02*
X014490Y013414D01*
X014490Y013256D02*
X020210Y013256D01*
X020210Y013097D02*
X014490Y013097D01*
X014490Y012939D02*
X020210Y012939D01*
X020210Y012780D02*
X014490Y012780D01*
X014490Y012622D02*
X020210Y012622D01*
X020210Y012463D02*
X014490Y012463D01*
X014490Y012305D02*
X020210Y012305D01*
X020210Y012146D02*
X014490Y012146D01*
X014490Y011988D02*
X020210Y011988D01*
X020210Y011829D02*
X014490Y011829D01*
X014490Y011671D02*
X020210Y011671D01*
X020210Y011512D02*
X014490Y011512D01*
X014490Y011354D02*
X017962Y011354D01*
X017988Y011362D02*
X017917Y011339D01*
X017850Y011305D01*
X017789Y011261D01*
X017736Y011207D01*
X017692Y011147D01*
X017658Y011080D01*
X017635Y011009D01*
X017623Y010934D01*
X017623Y010618D01*
X018082Y010618D01*
X018082Y010582D01*
X018118Y010582D01*
X018118Y010618D01*
X018577Y010618D01*
X018577Y010934D01*
X018565Y011009D01*
X018542Y011080D01*
X018508Y011147D01*
X018464Y011207D01*
X018411Y011261D01*
X018350Y011305D01*
X018283Y011339D01*
X018212Y011362D01*
X018138Y011374D01*
X018118Y011374D01*
X018118Y010618D01*
X018082Y010618D01*
X018082Y011374D01*
X018062Y011374D01*
X017988Y011362D01*
X018082Y011354D02*
X018118Y011354D01*
X018238Y011354D02*
X020210Y011354D01*
X020210Y011195D02*
X018473Y011195D01*
X018556Y011037D02*
X020210Y011037D01*
X020210Y010878D02*
X018577Y010878D01*
X018577Y010720D02*
X020210Y010720D01*
X020210Y010561D02*
X018577Y010561D01*
X018577Y010582D02*
X018118Y010582D01*
X018118Y009826D01*
X018138Y009826D01*
X018212Y009838D01*
X018283Y009861D01*
X018350Y009895D01*
X018411Y009939D01*
X018464Y009993D01*
X018508Y010053D01*
X018542Y010120D01*
X018565Y010191D01*
X018577Y010266D01*
X018577Y010582D01*
X018577Y010403D02*
X020210Y010403D01*
X020210Y010244D02*
X018573Y010244D01*
X018524Y010086D02*
X020210Y010086D01*
X020210Y009927D02*
X018394Y009927D01*
X018118Y009927D02*
X018082Y009927D01*
X018082Y009826D02*
X018082Y010582D01*
X017623Y010582D01*
X017623Y010266D01*
X017635Y010191D01*
X017658Y010120D01*
X017692Y010053D01*
X017736Y009993D01*
X017789Y009939D01*
X017850Y009895D01*
X017917Y009861D01*
X017988Y009838D01*
X018062Y009826D01*
X018082Y009826D01*
X017806Y009927D02*
X017333Y009927D01*
X017483Y010086D02*
X017676Y010086D01*
X017627Y010244D02*
X017537Y010244D01*
X017537Y010403D02*
X017623Y010403D01*
X017623Y010561D02*
X017537Y010561D01*
X017537Y010720D02*
X017623Y010720D01*
X017623Y010878D02*
X017537Y010878D01*
X017515Y011037D02*
X017644Y011037D01*
X017727Y011195D02*
X017420Y011195D01*
X016780Y011195D02*
X014490Y011195D01*
X014490Y011037D02*
X016685Y011037D01*
X018082Y011037D02*
X018118Y011037D01*
X018118Y011195D02*
X018082Y011195D01*
X018082Y010878D02*
X018118Y010878D01*
X018118Y010720D02*
X018082Y010720D01*
X018082Y010561D02*
X018118Y010561D01*
X018118Y010403D02*
X018082Y010403D01*
X018082Y010244D02*
X018118Y010244D01*
X018118Y010086D02*
X018082Y010086D01*
X020990Y010086D02*
X021710Y010086D01*
X021710Y010244D02*
X020990Y010244D01*
X020990Y010403D02*
X021710Y010403D01*
X021710Y010561D02*
X020990Y010561D01*
X020990Y010720D02*
X021710Y010720D01*
X021710Y010878D02*
X020990Y010878D01*
X020990Y011037D02*
X021710Y011037D01*
X021710Y011195D02*
X020990Y011195D01*
X020990Y011354D02*
X021710Y011354D01*
X021710Y011512D02*
X020990Y011512D01*
X020990Y011671D02*
X021710Y011671D01*
X021710Y011829D02*
X020990Y011829D01*
X020990Y011988D02*
X021710Y011988D01*
X021710Y012146D02*
X020990Y012146D01*
X020990Y012305D02*
X021710Y012305D01*
X021710Y012463D02*
X020990Y012463D01*
X020990Y012622D02*
X021710Y012622D01*
X021710Y012780D02*
X020990Y012780D01*
X020990Y012939D02*
X021710Y012939D01*
X021710Y013097D02*
X020990Y013097D01*
X020990Y013256D02*
X021710Y013256D01*
X021710Y013414D02*
X020990Y013414D01*
X020990Y013573D02*
X021710Y013573D01*
X021710Y013731D02*
X020990Y013731D01*
X020990Y013890D02*
X021710Y013890D01*
X021488Y014048D02*
X020990Y014048D01*
X020990Y014207D02*
X021488Y014207D01*
X021488Y014365D02*
X020990Y014365D01*
X020990Y014524D02*
X021488Y014524D01*
X021488Y014682D02*
X020988Y014682D01*
X020941Y014841D02*
X021488Y014841D01*
X021498Y014999D02*
X020930Y014999D01*
X019834Y014365D02*
X019327Y014365D01*
X019327Y014207D02*
X019834Y014207D01*
X019834Y014048D02*
X019319Y014048D01*
X016527Y014048D02*
X016012Y014048D01*
X016020Y014207D02*
X016527Y014207D01*
X016527Y014841D02*
X016020Y014841D01*
X016008Y014999D02*
X016537Y014999D01*
X015485Y014999D02*
X015369Y014999D01*
X015369Y014841D02*
X015485Y014841D01*
X015485Y014682D02*
X015369Y014682D01*
X014833Y014841D02*
X014411Y014841D01*
X014316Y014999D02*
X014845Y014999D01*
X015369Y014365D02*
X015485Y014365D01*
X015485Y014207D02*
X015369Y014207D01*
X015369Y014048D02*
X015485Y014048D01*
X012319Y011829D02*
X010490Y011829D01*
X010490Y011671D02*
X012478Y011671D01*
X012636Y011512D02*
X010490Y011512D01*
X010490Y011354D02*
X011962Y011354D01*
X011988Y011362D02*
X011917Y011339D01*
X011850Y011305D01*
X011789Y011261D01*
X011736Y011207D01*
X011692Y011147D01*
X011658Y011080D01*
X011635Y011009D01*
X011623Y010934D01*
X011623Y010618D01*
X012082Y010618D01*
X012082Y010582D01*
X012118Y010582D01*
X012118Y010618D01*
X012577Y010618D01*
X012577Y010934D01*
X012565Y011009D01*
X012542Y011080D01*
X012508Y011147D01*
X012464Y011207D01*
X012411Y011261D01*
X012350Y011305D01*
X012283Y011339D01*
X012212Y011362D01*
X012138Y011374D01*
X012118Y011374D01*
X012118Y010618D01*
X012082Y010618D01*
X012082Y011374D01*
X012062Y011374D01*
X011988Y011362D01*
X012082Y011354D02*
X012118Y011354D01*
X012238Y011354D02*
X012710Y011354D01*
X012710Y011195D02*
X012473Y011195D01*
X012556Y011037D02*
X012710Y011037D01*
X012710Y010878D02*
X012577Y010878D01*
X012577Y010720D02*
X012710Y010720D01*
X012710Y010561D02*
X012577Y010561D01*
X012577Y010582D02*
X012118Y010582D01*
X012118Y009826D01*
X012138Y009826D01*
X012212Y009838D01*
X012283Y009861D01*
X012350Y009895D01*
X012411Y009939D01*
X012464Y009993D01*
X012508Y010053D01*
X012542Y010120D01*
X012565Y010191D01*
X012577Y010266D01*
X012577Y010582D01*
X012577Y010403D02*
X012710Y010403D01*
X012710Y010244D02*
X012573Y010244D01*
X012524Y010086D02*
X012710Y010086D01*
X012710Y009927D02*
X012394Y009927D01*
X012118Y009927D02*
X012082Y009927D01*
X012082Y009826D02*
X012082Y010582D01*
X011623Y010582D01*
X011623Y010266D01*
X011635Y010191D01*
X011658Y010120D01*
X011692Y010053D01*
X011736Y009993D01*
X011789Y009939D01*
X011850Y009895D01*
X011917Y009861D01*
X011988Y009838D01*
X012062Y009826D01*
X012082Y009826D01*
X011806Y009927D02*
X011333Y009927D01*
X011483Y010086D02*
X011676Y010086D01*
X011627Y010244D02*
X011537Y010244D01*
X011537Y010403D02*
X011623Y010403D01*
X011623Y010561D02*
X011537Y010561D01*
X011537Y010720D02*
X011623Y010720D01*
X011623Y010878D02*
X011537Y010878D01*
X011515Y011037D02*
X011644Y011037D01*
X011727Y011195D02*
X011420Y011195D01*
X010780Y011195D02*
X010490Y011195D01*
X010490Y011037D02*
X010685Y011037D01*
X009710Y011037D02*
X009490Y011037D01*
X009490Y011195D02*
X009710Y011195D01*
X009710Y011354D02*
X009490Y011354D01*
X009490Y011512D02*
X009710Y011512D01*
X009710Y011671D02*
X009490Y011671D01*
X009490Y011678D02*
X009431Y011821D01*
X007490Y013762D01*
X007490Y013964D01*
X007630Y013964D01*
X007712Y014046D01*
X007712Y014989D01*
X007630Y015071D01*
X006688Y015071D01*
X006606Y014989D01*
X006606Y014046D01*
X006688Y013964D01*
X006710Y013964D01*
X006710Y013522D01*
X006769Y013379D01*
X006879Y013269D01*
X008710Y011438D01*
X008710Y007022D01*
X008769Y006879D01*
X008879Y006769D01*
X009022Y006710D01*
X010666Y006710D01*
X010730Y006556D01*
X010853Y006433D01*
X011013Y006366D01*
X011187Y006366D01*
X011347Y006433D01*
X011470Y006556D01*
X011537Y006716D01*
X011537Y007484D01*
X011470Y007644D01*
X011347Y007767D01*
X011187Y007834D01*
X011013Y007834D01*
X010853Y007767D01*
X010730Y007644D01*
X010666Y007490D01*
X009490Y007490D01*
X009490Y011678D01*
X009423Y011829D02*
X009710Y011829D01*
X009710Y011988D02*
X009264Y011988D01*
X009106Y012146D02*
X009710Y012146D01*
X009710Y012305D02*
X008947Y012305D01*
X008789Y012463D02*
X009710Y012463D01*
X009710Y012622D02*
X008630Y012622D01*
X008472Y012780D02*
X009710Y012780D01*
X009710Y012939D02*
X008313Y012939D01*
X008155Y013097D02*
X009551Y013097D01*
X009393Y013256D02*
X007996Y013256D01*
X007838Y013414D02*
X009255Y013414D01*
X009210Y013573D02*
X007679Y013573D01*
X007521Y013731D02*
X009210Y013731D01*
X009210Y013890D02*
X007490Y013890D01*
X007712Y014048D02*
X008259Y014048D01*
X008259Y014207D02*
X007712Y014207D01*
X007712Y014365D02*
X008259Y014365D01*
X008259Y014524D02*
X007712Y014524D01*
X007712Y014682D02*
X008259Y014682D01*
X008259Y014841D02*
X007712Y014841D01*
X007702Y014999D02*
X008270Y014999D01*
X009210Y015158D02*
X006709Y015158D01*
X006616Y014999D02*
X006551Y014999D01*
X006606Y014841D02*
X006392Y014841D01*
X006234Y014682D02*
X006606Y014682D01*
X006606Y014524D02*
X006075Y014524D01*
X005917Y014365D02*
X006606Y014365D01*
X006606Y014207D02*
X005758Y014207D01*
X005600Y014048D02*
X006606Y014048D01*
X006710Y013890D02*
X005441Y013890D01*
X005283Y013731D02*
X006710Y013731D01*
X006710Y013573D02*
X005124Y013573D01*
X004990Y013438D02*
X007321Y015769D01*
X007431Y015879D01*
X007490Y016022D01*
X007490Y016129D01*
X007630Y016129D01*
X007712Y016211D01*
X007712Y017154D01*
X007630Y017236D01*
X006688Y017236D01*
X006606Y017154D01*
X006606Y016211D01*
X006633Y016184D01*
X004269Y013821D01*
X004210Y013678D01*
X004210Y011022D01*
X004269Y010879D01*
X004379Y010769D01*
X004663Y010485D01*
X004663Y010216D01*
X004730Y010056D01*
X004853Y009933D01*
X005013Y009866D01*
X005187Y009866D01*
X005347Y009933D01*
X005470Y010056D01*
X005537Y010216D01*
X005537Y010984D01*
X005470Y011144D01*
X005347Y011267D01*
X005187Y011334D01*
X005013Y011334D01*
X004990Y011324D01*
X004990Y013438D01*
X004990Y013414D02*
X006755Y013414D01*
X006893Y013256D02*
X004990Y013256D01*
X004990Y013097D02*
X007051Y013097D01*
X007210Y012939D02*
X004990Y012939D01*
X004990Y012780D02*
X007368Y012780D01*
X007527Y012622D02*
X004990Y012622D01*
X004990Y012463D02*
X007685Y012463D01*
X007844Y012305D02*
X004990Y012305D01*
X004990Y012146D02*
X008002Y012146D01*
X008161Y011988D02*
X004990Y011988D01*
X004990Y011829D02*
X008319Y011829D01*
X008478Y011671D02*
X004990Y011671D01*
X004990Y011512D02*
X008636Y011512D01*
X008710Y011354D02*
X006238Y011354D01*
X006212Y011362D02*
X006138Y011374D01*
X006118Y011374D01*
X006118Y010618D01*
X006577Y010618D01*
X006577Y010934D01*
X006565Y011009D01*
X006542Y011080D01*
X006508Y011147D01*
X006464Y011207D01*
X006411Y011261D01*
X006350Y011305D01*
X006283Y011339D01*
X006212Y011362D01*
X006118Y011354D02*
X006082Y011354D01*
X006082Y011374D02*
X006062Y011374D01*
X005988Y011362D01*
X005917Y011339D01*
X005850Y011305D01*
X005789Y011261D01*
X005736Y011207D01*
X005692Y011147D01*
X005658Y011080D01*
X005635Y011009D01*
X005623Y010934D01*
X005623Y010618D01*
X006082Y010618D01*
X006082Y010582D01*
X006118Y010582D01*
X006118Y010618D01*
X006082Y010618D01*
X006082Y011374D01*
X005962Y011354D02*
X004990Y011354D01*
X005420Y011195D02*
X005727Y011195D01*
X005644Y011037D02*
X005515Y011037D01*
X005537Y010878D02*
X005623Y010878D01*
X005623Y010720D02*
X005537Y010720D01*
X005537Y010561D02*
X005623Y010561D01*
X005623Y010582D02*
X005623Y010266D01*
X005635Y010191D01*
X005658Y010120D01*
X005692Y010053D01*
X005736Y009993D01*
X005789Y009939D01*
X005850Y009895D01*
X005917Y009861D01*
X005988Y009838D01*
X006062Y009826D01*
X006082Y009826D01*
X006082Y010582D01*
X005623Y010582D01*
X005623Y010403D02*
X005537Y010403D01*
X005537Y010244D02*
X005627Y010244D01*
X005676Y010086D02*
X005483Y010086D01*
X005333Y009927D02*
X005806Y009927D01*
X006082Y009927D02*
X006118Y009927D01*
X006118Y009826D02*
X006138Y009826D01*
X006212Y009838D01*
X006283Y009861D01*
X006350Y009895D01*
X006411Y009939D01*
X006464Y009993D01*
X006508Y010053D01*
X006542Y010120D01*
X006565Y010191D01*
X006577Y010266D01*
X006577Y010582D01*
X006118Y010582D01*
X006118Y009826D01*
X006394Y009927D02*
X008710Y009927D01*
X008710Y009769D02*
X000600Y009769D01*
X000600Y009927D02*
X004867Y009927D01*
X004717Y010086D02*
X000600Y010086D01*
X000600Y010244D02*
X004663Y010244D01*
X004663Y010403D02*
X000600Y010403D01*
X000600Y010561D02*
X004587Y010561D01*
X004429Y010720D02*
X000600Y010720D01*
X000600Y010878D02*
X004270Y010878D01*
X004210Y011037D02*
X000600Y011037D01*
X000600Y011195D02*
X004210Y011195D01*
X004210Y011354D02*
X000600Y011354D01*
X000600Y011512D02*
X004210Y011512D01*
X004210Y011671D02*
X000600Y011671D01*
X000600Y011829D02*
X004210Y011829D01*
X004210Y011988D02*
X000600Y011988D01*
X000600Y012146D02*
X004210Y012146D01*
X004210Y012305D02*
X000600Y012305D01*
X000600Y012463D02*
X004210Y012463D01*
X004210Y012622D02*
X000600Y012622D01*
X000600Y012780D02*
X004210Y012780D01*
X004210Y012939D02*
X000600Y012939D01*
X000600Y013097D02*
X004210Y013097D01*
X004210Y013256D02*
X000600Y013256D01*
X000600Y013414D02*
X004210Y013414D01*
X004210Y013573D02*
X000600Y013573D01*
X000600Y013731D02*
X004232Y013731D01*
X004338Y013890D02*
X000600Y013890D01*
X000600Y014048D02*
X004496Y014048D01*
X004655Y014207D02*
X000600Y014207D01*
X000600Y014365D02*
X004813Y014365D01*
X004972Y014524D02*
X000600Y014524D01*
X000600Y014682D02*
X005130Y014682D01*
X005289Y014841D02*
X000600Y014841D01*
X000600Y014999D02*
X005447Y014999D01*
X005606Y015158D02*
X000600Y015158D01*
X000600Y015316D02*
X005764Y015316D01*
X005923Y015475D02*
X002944Y015475D01*
X002726Y015425D02*
X003214Y015536D01*
X003647Y015787D01*
X003647Y015787D01*
X003988Y016154D01*
X004205Y016605D01*
X004280Y017100D01*
X004205Y017595D01*
X004205Y017595D01*
X003988Y018046D01*
X003988Y018046D01*
X003647Y018413D01*
X003214Y018664D01*
X003214Y018664D01*
X002726Y018775D01*
X002726Y018775D01*
X002226Y018738D01*
X001760Y018555D01*
X001368Y018243D01*
X001086Y017829D01*
X000939Y017350D01*
X000939Y016850D01*
X001086Y016371D01*
X001368Y015957D01*
X001368Y015957D01*
X001368Y015957D01*
X001760Y015645D01*
X002226Y015462D01*
X002226Y015462D01*
X002726Y015425D01*
X002726Y015425D01*
X003214Y015536D02*
X003214Y015536D01*
X003382Y015633D02*
X006081Y015633D01*
X006240Y015792D02*
X005608Y015792D01*
X005745Y015848D02*
X005962Y016065D01*
X006079Y016348D01*
X006079Y016655D01*
X005962Y016938D01*
X005745Y017155D01*
X005462Y017272D01*
X005155Y017272D01*
X004872Y017155D01*
X004655Y016938D01*
X004538Y016655D01*
X004538Y016348D01*
X004655Y016065D01*
X004872Y015848D01*
X005155Y015731D01*
X005462Y015731D01*
X005745Y015848D01*
X005847Y015950D02*
X006398Y015950D01*
X006557Y016109D02*
X005980Y016109D01*
X006046Y016267D02*
X006606Y016267D01*
X006606Y016426D02*
X006079Y016426D01*
X006079Y016584D02*
X006606Y016584D01*
X006606Y016743D02*
X006043Y016743D01*
X005977Y016901D02*
X006606Y016901D01*
X006606Y017060D02*
X005840Y017060D01*
X005593Y017218D02*
X006670Y017218D01*
X007648Y017218D02*
X008323Y017218D01*
X008259Y017060D02*
X007712Y017060D01*
X007712Y016901D02*
X008259Y016901D01*
X008259Y016743D02*
X007712Y016743D01*
X007712Y016584D02*
X008259Y016584D01*
X008259Y016426D02*
X007712Y016426D01*
X007712Y016267D02*
X008259Y016267D01*
X008710Y016109D02*
X007490Y016109D01*
X007460Y015950D02*
X008740Y015950D01*
X008857Y015792D02*
X007343Y015792D01*
X007185Y015633D02*
X009015Y015633D01*
X009174Y015475D02*
X007026Y015475D01*
X006868Y015316D02*
X009210Y015316D01*
X009990Y013890D02*
X010265Y013890D01*
X010417Y013731D02*
X010021Y013731D01*
X010179Y013573D02*
X010576Y013573D01*
X010734Y013414D02*
X010338Y013414D01*
X010458Y013256D02*
X010893Y013256D01*
X011051Y013097D02*
X010490Y013097D01*
X010490Y012939D02*
X011210Y012939D01*
X011368Y012780D02*
X010490Y012780D01*
X010490Y012622D02*
X011527Y012622D01*
X011685Y012463D02*
X010490Y012463D01*
X010490Y012305D02*
X011844Y012305D01*
X012002Y012146D02*
X010490Y012146D01*
X010490Y011988D02*
X012161Y011988D01*
X012118Y011195D02*
X012082Y011195D01*
X012082Y011037D02*
X012118Y011037D01*
X012118Y010878D02*
X012082Y010878D01*
X012082Y010720D02*
X012118Y010720D01*
X012118Y010561D02*
X012082Y010561D01*
X012082Y010403D02*
X012118Y010403D01*
X012118Y010244D02*
X012082Y010244D01*
X012082Y010086D02*
X012118Y010086D01*
X012710Y009769D02*
X009490Y009769D01*
X009490Y009927D02*
X010867Y009927D01*
X010717Y010086D02*
X009490Y010086D01*
X009490Y010244D02*
X009940Y010244D01*
X009760Y010403D02*
X009490Y010403D01*
X009490Y010561D02*
X009710Y010561D01*
X009710Y010720D02*
X009490Y010720D01*
X009490Y010878D02*
X009710Y010878D01*
X008710Y010878D02*
X006577Y010878D01*
X006577Y010720D02*
X008710Y010720D01*
X008710Y010561D02*
X006577Y010561D01*
X006577Y010403D02*
X008710Y010403D01*
X008710Y010244D02*
X006573Y010244D01*
X006524Y010086D02*
X008710Y010086D01*
X008710Y009610D02*
X000600Y009610D01*
X000600Y009452D02*
X008710Y009452D01*
X008710Y009293D02*
X000600Y009293D01*
X000600Y009135D02*
X008710Y009135D01*
X008710Y008976D02*
X000600Y008976D01*
X000600Y008818D02*
X008710Y008818D01*
X008710Y008659D02*
X000600Y008659D01*
X000600Y008501D02*
X008710Y008501D01*
X008710Y008342D02*
X000600Y008342D01*
X000600Y008184D02*
X008710Y008184D01*
X008710Y008025D02*
X000600Y008025D01*
X000600Y007867D02*
X004017Y007867D01*
X003988Y007862D02*
X003917Y007839D01*
X003850Y007805D01*
X003789Y007761D01*
X003736Y007707D01*
X003692Y007647D01*
X003658Y007580D01*
X003635Y007509D01*
X003623Y007434D01*
X003623Y007118D01*
X004082Y007118D01*
X004082Y007082D01*
X004118Y007082D01*
X004118Y007118D01*
X004577Y007118D01*
X004577Y007434D01*
X004565Y007509D01*
X004542Y007580D01*
X004508Y007647D01*
X004464Y007707D01*
X004411Y007761D01*
X004350Y007805D01*
X004283Y007839D01*
X004212Y007862D01*
X004138Y007874D01*
X004118Y007874D01*
X004118Y007118D01*
X004082Y007118D01*
X004082Y007874D01*
X004062Y007874D01*
X003988Y007862D01*
X004082Y007867D02*
X004118Y007867D01*
X004183Y007867D02*
X008017Y007867D01*
X007988Y007862D02*
X007917Y007839D01*
X007850Y007805D01*
X007789Y007761D01*
X007736Y007707D01*
X007692Y007647D01*
X007658Y007580D01*
X007635Y007509D01*
X007623Y007434D01*
X007623Y007118D01*
X008082Y007118D01*
X008082Y007082D01*
X008118Y007082D01*
X008118Y007118D01*
X008577Y007118D01*
X008577Y007434D01*
X008565Y007509D01*
X008542Y007580D01*
X008508Y007647D01*
X008464Y007707D01*
X008411Y007761D01*
X008350Y007805D01*
X008283Y007839D01*
X008212Y007862D01*
X008138Y007874D01*
X008118Y007874D01*
X008118Y007118D01*
X008082Y007118D01*
X008082Y007874D01*
X008062Y007874D01*
X007988Y007862D01*
X008082Y007867D02*
X008118Y007867D01*
X008183Y007867D02*
X008710Y007867D01*
X008710Y007708D02*
X008463Y007708D01*
X008552Y007550D02*
X008710Y007550D01*
X008710Y007391D02*
X008577Y007391D01*
X008577Y007233D02*
X008710Y007233D01*
X008710Y007074D02*
X008577Y007074D01*
X008577Y007082D02*
X008118Y007082D01*
X008118Y006326D01*
X008138Y006326D01*
X008212Y006338D01*
X008283Y006361D01*
X008350Y006395D01*
X008411Y006439D01*
X008464Y006493D01*
X008508Y006553D01*
X008542Y006620D01*
X008565Y006691D01*
X008577Y006766D01*
X008577Y007082D01*
X008577Y006916D02*
X008754Y006916D01*
X008909Y006757D02*
X008575Y006757D01*
X008531Y006599D02*
X010712Y006599D01*
X010845Y006440D02*
X008411Y006440D01*
X008118Y006440D02*
X008082Y006440D01*
X008082Y006326D02*
X008082Y007082D01*
X007623Y007082D01*
X007623Y006766D01*
X007635Y006691D01*
X007658Y006620D01*
X007692Y006553D01*
X007736Y006493D01*
X007789Y006439D01*
X007850Y006395D01*
X007917Y006361D01*
X007988Y006338D01*
X008062Y006326D01*
X008082Y006326D01*
X008082Y006599D02*
X008118Y006599D01*
X008118Y006757D02*
X008082Y006757D01*
X008082Y006916D02*
X008118Y006916D01*
X008118Y007074D02*
X008082Y007074D01*
X008082Y007233D02*
X008118Y007233D01*
X008118Y007391D02*
X008082Y007391D01*
X008082Y007550D02*
X008118Y007550D01*
X008118Y007708D02*
X008082Y007708D01*
X007737Y007708D02*
X007407Y007708D01*
X007347Y007767D02*
X007187Y007834D01*
X007013Y007834D01*
X006853Y007767D01*
X006730Y007644D01*
X006663Y007484D01*
X006663Y006716D01*
X006730Y006556D01*
X006853Y006433D01*
X007013Y006366D01*
X007187Y006366D01*
X007347Y006433D01*
X007470Y006556D01*
X007537Y006716D01*
X007537Y007484D01*
X007470Y007644D01*
X007347Y007767D01*
X007510Y007550D02*
X007648Y007550D01*
X007623Y007391D02*
X007537Y007391D01*
X007537Y007233D02*
X007623Y007233D01*
X007623Y007074D02*
X007537Y007074D01*
X007537Y006916D02*
X007623Y006916D01*
X007625Y006757D02*
X007537Y006757D01*
X007488Y006599D02*
X007669Y006599D01*
X007789Y006440D02*
X007355Y006440D01*
X006845Y006440D02*
X004411Y006440D01*
X004411Y006439D02*
X004464Y006493D01*
X004508Y006553D01*
X004542Y006620D01*
X004565Y006691D01*
X004577Y006766D01*
X004577Y007082D01*
X004118Y007082D01*
X004118Y006326D01*
X004138Y006326D01*
X004212Y006338D01*
X004283Y006361D01*
X004350Y006395D01*
X004411Y006439D01*
X004531Y006599D02*
X006712Y006599D01*
X006663Y006757D02*
X004575Y006757D01*
X004577Y006916D02*
X006663Y006916D01*
X006663Y007074D02*
X004577Y007074D01*
X004577Y007233D02*
X006663Y007233D01*
X006663Y007391D02*
X004577Y007391D01*
X004552Y007550D02*
X006690Y007550D01*
X006793Y007708D02*
X004463Y007708D01*
X004118Y007708D02*
X004082Y007708D01*
X004082Y007550D02*
X004118Y007550D01*
X004118Y007391D02*
X004082Y007391D01*
X004082Y007233D02*
X004118Y007233D01*
X004082Y007082D02*
X003623Y007082D01*
X003623Y006766D01*
X003635Y006691D01*
X003658Y006620D01*
X003692Y006553D01*
X003736Y006493D01*
X003789Y006439D01*
X003850Y006395D01*
X003917Y006361D01*
X003988Y006338D01*
X004062Y006326D01*
X004082Y006326D01*
X004082Y007082D01*
X004082Y007074D02*
X004118Y007074D01*
X004118Y006916D02*
X004082Y006916D01*
X004082Y006757D02*
X004118Y006757D01*
X004118Y006599D02*
X004082Y006599D01*
X004082Y006440D02*
X004118Y006440D01*
X003789Y006440D02*
X003355Y006440D01*
X003347Y006433D02*
X003470Y006556D01*
X003537Y006716D01*
X003537Y007484D01*
X003470Y007644D01*
X003347Y007767D01*
X003187Y007834D01*
X003013Y007834D01*
X002853Y007767D01*
X002730Y007644D01*
X002663Y007484D01*
X002663Y006716D01*
X002730Y006556D01*
X002853Y006433D01*
X003013Y006366D01*
X003187Y006366D01*
X003347Y006433D01*
X003488Y006599D02*
X003669Y006599D01*
X003625Y006757D02*
X003537Y006757D01*
X003537Y006916D02*
X003623Y006916D01*
X003623Y007074D02*
X003537Y007074D01*
X003537Y007233D02*
X003623Y007233D01*
X003623Y007391D02*
X003537Y007391D01*
X003510Y007550D02*
X003648Y007550D01*
X003737Y007708D02*
X003407Y007708D01*
X002793Y007708D02*
X000600Y007708D01*
X000600Y007550D02*
X002690Y007550D01*
X002663Y007391D02*
X000600Y007391D01*
X000600Y007233D02*
X002663Y007233D01*
X002663Y007074D02*
X000600Y007074D01*
X000600Y006916D02*
X002663Y006916D01*
X002663Y006757D02*
X000600Y006757D01*
X000600Y006599D02*
X002712Y006599D01*
X002845Y006440D02*
X000600Y006440D01*
X000600Y006282D02*
X012710Y006282D01*
X012710Y006440D02*
X012411Y006440D01*
X012411Y006439D02*
X012464Y006493D01*
X012508Y006553D01*
X012542Y006620D01*
X012565Y006691D01*
X012577Y006766D01*
X012577Y007082D01*
X012118Y007082D01*
X012118Y007118D01*
X012577Y007118D01*
X012577Y007434D01*
X012565Y007509D01*
X012542Y007580D01*
X012508Y007647D01*
X012464Y007707D01*
X012411Y007761D01*
X012350Y007805D01*
X012283Y007839D01*
X012212Y007862D01*
X012138Y007874D01*
X012118Y007874D01*
X012118Y007118D01*
X012082Y007118D01*
X012082Y007082D01*
X012118Y007082D01*
X012118Y006326D01*
X012138Y006326D01*
X012212Y006338D01*
X012283Y006361D01*
X012350Y006395D01*
X012411Y006439D01*
X012531Y006599D02*
X012710Y006599D01*
X012710Y006757D02*
X012575Y006757D01*
X012577Y006916D02*
X012710Y006916D01*
X012710Y007074D02*
X012577Y007074D01*
X012577Y007233D02*
X012710Y007233D01*
X012710Y007391D02*
X012577Y007391D01*
X012552Y007550D02*
X012710Y007550D01*
X012710Y007708D02*
X012463Y007708D01*
X012710Y007867D02*
X012183Y007867D01*
X012118Y007867D02*
X012082Y007867D01*
X012082Y007874D02*
X012062Y007874D01*
X011988Y007862D01*
X011917Y007839D01*
X011850Y007805D01*
X011789Y007761D01*
X011736Y007707D01*
X011692Y007647D01*
X011658Y007580D01*
X011635Y007509D01*
X011623Y007434D01*
X011623Y007118D01*
X012082Y007118D01*
X012082Y007874D01*
X012017Y007867D02*
X009490Y007867D01*
X009490Y008025D02*
X012710Y008025D01*
X012710Y008184D02*
X009490Y008184D01*
X009490Y008342D02*
X012710Y008342D01*
X012710Y008501D02*
X009490Y008501D01*
X009490Y008659D02*
X012710Y008659D01*
X012710Y008818D02*
X009490Y008818D01*
X009490Y008976D02*
X012710Y008976D01*
X012710Y009135D02*
X009490Y009135D01*
X009490Y009293D02*
X012710Y009293D01*
X012710Y009452D02*
X009490Y009452D01*
X009490Y009610D02*
X012710Y009610D01*
X012118Y007708D02*
X012082Y007708D01*
X012082Y007550D02*
X012118Y007550D01*
X012118Y007391D02*
X012082Y007391D01*
X012082Y007233D02*
X012118Y007233D01*
X012082Y007082D02*
X011623Y007082D01*
X011623Y006766D01*
X011635Y006691D01*
X011658Y006620D01*
X011692Y006553D01*
X011736Y006493D01*
X011789Y006439D01*
X011850Y006395D01*
X011917Y006361D01*
X011988Y006338D01*
X012062Y006326D01*
X012082Y006326D01*
X012082Y007082D01*
X012082Y007074D02*
X012118Y007074D01*
X012118Y006916D02*
X012082Y006916D01*
X012082Y006757D02*
X012118Y006757D01*
X012118Y006599D02*
X012082Y006599D01*
X012082Y006440D02*
X012118Y006440D01*
X011789Y006440D02*
X011355Y006440D01*
X011488Y006599D02*
X011669Y006599D01*
X011625Y006757D02*
X011537Y006757D01*
X011537Y006916D02*
X011623Y006916D01*
X011623Y007074D02*
X011537Y007074D01*
X011537Y007233D02*
X011623Y007233D01*
X011623Y007391D02*
X011537Y007391D01*
X011510Y007550D02*
X011648Y007550D01*
X011737Y007708D02*
X011407Y007708D01*
X010793Y007708D02*
X009490Y007708D01*
X009490Y007550D02*
X010690Y007550D01*
X012710Y006123D02*
X000600Y006123D01*
X000600Y005965D02*
X011461Y005965D01*
X011254Y005806D02*
X000600Y005806D01*
X000600Y005648D02*
X011096Y005648D01*
X010937Y005489D02*
X000600Y005489D01*
X000600Y005331D02*
X010779Y005331D01*
X010620Y005172D02*
X000600Y005172D01*
X000600Y005014D02*
X010462Y005014D01*
X010303Y004855D02*
X000600Y004855D01*
X000600Y004697D02*
X010145Y004697D01*
X009986Y004538D02*
X000600Y004538D01*
X002226Y004238D02*
X002226Y004238D01*
X006082Y010086D02*
X006118Y010086D01*
X006118Y010244D02*
X006082Y010244D01*
X006082Y010403D02*
X006118Y010403D01*
X006118Y010561D02*
X006082Y010561D01*
X006082Y010720D02*
X006118Y010720D01*
X006118Y010878D02*
X006082Y010878D01*
X006082Y011037D02*
X006118Y011037D01*
X006118Y011195D02*
X006082Y011195D01*
X006473Y011195D02*
X008710Y011195D01*
X008710Y011037D02*
X006556Y011037D01*
X002195Y015475D02*
X000600Y015475D01*
X000600Y015633D02*
X001791Y015633D01*
X001760Y015645D02*
X001760Y015645D01*
X001576Y015792D02*
X000600Y015792D01*
X000600Y015950D02*
X001378Y015950D01*
X001265Y016109D02*
X000600Y016109D01*
X000600Y016267D02*
X001157Y016267D01*
X001086Y016371D02*
X001086Y016371D01*
X001070Y016426D02*
X000600Y016426D01*
X000600Y016584D02*
X001021Y016584D01*
X000972Y016743D02*
X000600Y016743D01*
X000600Y016901D02*
X000939Y016901D01*
X000939Y017060D02*
X000600Y017060D01*
X000600Y017218D02*
X000939Y017218D01*
X000947Y017377D02*
X000600Y017377D01*
X000600Y017535D02*
X000996Y017535D01*
X001045Y017694D02*
X000600Y017694D01*
X000600Y017852D02*
X001102Y017852D01*
X001086Y017829D02*
X001086Y017829D01*
X001210Y018011D02*
X000600Y018011D01*
X000600Y018169D02*
X001318Y018169D01*
X001368Y018243D02*
X001368Y018243D01*
X001368Y018243D01*
X001475Y018328D02*
X000600Y018328D01*
X000600Y018486D02*
X001674Y018486D01*
X001760Y018555D02*
X001760Y018555D01*
X001988Y018645D02*
X000600Y018645D01*
X000600Y018803D02*
X028600Y018803D01*
X028600Y018645D02*
X027247Y018645D01*
X027522Y018486D02*
X028600Y018486D01*
X028600Y018328D02*
X027727Y018328D01*
X027874Y018169D02*
X028600Y018169D01*
X028600Y018011D02*
X028005Y018011D01*
X028082Y017852D02*
X028600Y017852D01*
X028600Y017694D02*
X028158Y017694D01*
X028205Y017595D02*
X028205Y017595D01*
X028214Y017535D02*
X028600Y017535D01*
X028600Y017377D02*
X028238Y017377D01*
X028262Y017218D02*
X028600Y017218D01*
X028600Y017060D02*
X028274Y017060D01*
X028250Y016901D02*
X028600Y016901D01*
X028600Y016743D02*
X028226Y016743D01*
X028195Y016584D02*
X028600Y016584D01*
X028600Y016426D02*
X028119Y016426D01*
X028043Y016267D02*
X028600Y016267D01*
X028600Y016109D02*
X027946Y016109D01*
X027799Y015950D02*
X028600Y015950D01*
X028600Y015792D02*
X027652Y015792D01*
X027382Y015633D02*
X028600Y015633D01*
X028600Y015475D02*
X026944Y015475D01*
X025576Y015792D02*
X024191Y015792D01*
X024430Y015950D02*
X025378Y015950D01*
X025265Y016109D02*
X024563Y016109D01*
X024628Y016267D02*
X025157Y016267D01*
X025070Y016426D02*
X024662Y016426D01*
X024662Y016584D02*
X025021Y016584D01*
X024972Y016743D02*
X024626Y016743D01*
X024560Y016901D02*
X024939Y016901D01*
X024939Y017060D02*
X024423Y017060D01*
X024175Y017218D02*
X024939Y017218D01*
X024947Y017377D02*
X004238Y017377D01*
X004214Y017535D02*
X024996Y017535D01*
X025045Y017694D02*
X004158Y017694D01*
X004082Y017852D02*
X025102Y017852D01*
X025210Y018011D02*
X004005Y018011D01*
X003874Y018169D02*
X025318Y018169D01*
X025475Y018328D02*
X003727Y018328D01*
X003647Y018413D02*
X003647Y018413D01*
X003522Y018486D02*
X025674Y018486D01*
X025988Y018645D02*
X003247Y018645D01*
X002226Y018738D02*
X002226Y018738D01*
X000600Y018962D02*
X028600Y018962D01*
X024118Y011195D02*
X024082Y011195D01*
X024082Y011037D02*
X024118Y011037D01*
X024118Y010878D02*
X024082Y010878D01*
X024082Y010720D02*
X024118Y010720D01*
X024118Y010561D02*
X024082Y010561D01*
X024082Y010403D02*
X024118Y010403D01*
X024118Y010244D02*
X024082Y010244D01*
X024082Y010086D02*
X024118Y010086D01*
X022514Y009135D02*
X020990Y009135D01*
X020990Y009293D02*
X022355Y009293D01*
X022197Y009452D02*
X020990Y009452D01*
X020990Y009610D02*
X022038Y009610D01*
X021880Y009769D02*
X020990Y009769D01*
X020990Y009927D02*
X021750Y009927D01*
X021879Y009769D02*
X021879Y009769D01*
X022672Y008976D02*
X020990Y008976D01*
X020990Y008818D02*
X022710Y008818D01*
X022710Y008659D02*
X020990Y008659D01*
X020990Y008501D02*
X022710Y008501D01*
X022710Y008342D02*
X020990Y008342D01*
X020990Y008184D02*
X022710Y008184D01*
X022710Y008025D02*
X020990Y008025D01*
X020990Y007867D02*
X022710Y007867D01*
X022710Y007708D02*
X020990Y007708D01*
X020990Y007550D02*
X022710Y007550D01*
X022710Y007391D02*
X020990Y007391D01*
X021382Y007233D02*
X021761Y007233D01*
X021736Y007207D02*
X021692Y007147D01*
X021658Y007080D01*
X021635Y007009D01*
X021623Y006934D01*
X021623Y006618D01*
X022082Y006618D01*
X022082Y006582D01*
X022118Y006582D01*
X022118Y006618D01*
X022577Y006618D01*
X022577Y006934D01*
X022565Y007009D01*
X022542Y007080D01*
X022508Y007147D01*
X022464Y007207D01*
X022411Y007261D01*
X022350Y007305D01*
X022283Y007339D01*
X022212Y007362D01*
X022138Y007374D01*
X022118Y007374D01*
X022118Y006618D01*
X022082Y006618D01*
X022082Y007374D01*
X022062Y007374D01*
X021988Y007362D01*
X021917Y007339D01*
X021850Y007305D01*
X021789Y007261D01*
X021736Y007207D01*
X021656Y007074D02*
X021499Y007074D01*
X021537Y006916D02*
X021623Y006916D01*
X021623Y006757D02*
X021537Y006757D01*
X021537Y006599D02*
X022082Y006599D01*
X022082Y006582D02*
X021623Y006582D01*
X021623Y006266D01*
X021635Y006191D01*
X021658Y006120D01*
X021692Y006053D01*
X021736Y005993D01*
X021789Y005939D01*
X021850Y005895D01*
X021917Y005861D01*
X021988Y005838D01*
X022062Y005826D01*
X022082Y005826D01*
X022082Y006582D01*
X022118Y006582D02*
X022118Y005826D01*
X022138Y005826D01*
X022212Y005838D01*
X022283Y005861D01*
X022350Y005895D01*
X022411Y005939D01*
X022464Y005993D01*
X022508Y006053D01*
X022542Y006120D01*
X022565Y006191D01*
X022577Y006266D01*
X022577Y006582D01*
X022118Y006582D01*
X022118Y006599D02*
X022710Y006599D01*
X022710Y006757D02*
X022577Y006757D01*
X022577Y006916D02*
X022710Y006916D01*
X022710Y007074D02*
X022544Y007074D01*
X022439Y007233D02*
X022710Y007233D01*
X022118Y007233D02*
X022082Y007233D01*
X022082Y007074D02*
X022118Y007074D01*
X022118Y006916D02*
X022082Y006916D01*
X022082Y006757D02*
X022118Y006757D01*
X022118Y006440D02*
X022082Y006440D01*
X022082Y006282D02*
X022118Y006282D01*
X022118Y006123D02*
X022082Y006123D01*
X022082Y005965D02*
X022118Y005965D01*
X022436Y005965D02*
X022710Y005965D01*
X022710Y006123D02*
X022543Y006123D01*
X022577Y006282D02*
X022710Y006282D01*
X022710Y006440D02*
X022577Y006440D01*
X021764Y005965D02*
X021379Y005965D01*
X021498Y006123D02*
X021657Y006123D01*
X021623Y006282D02*
X021537Y006282D01*
X021537Y006440D02*
X021623Y006440D01*
X023490Y005806D02*
X028600Y005806D01*
X028600Y005648D02*
X023490Y005648D01*
X023490Y005489D02*
X028600Y005489D01*
X028600Y005331D02*
X023490Y005331D01*
X023490Y005172D02*
X028600Y005172D01*
X028600Y005014D02*
X023486Y005014D01*
X023407Y004855D02*
X028600Y004855D01*
X028600Y005965D02*
X026436Y005965D01*
X026411Y005939D02*
X026464Y005993D01*
X026508Y006053D01*
X026542Y006120D01*
X026565Y006191D01*
X026577Y006266D01*
X026577Y006582D01*
X026118Y006582D01*
X026118Y005826D01*
X026138Y005826D01*
X026212Y005838D01*
X026283Y005861D01*
X026350Y005895D01*
X026411Y005939D01*
X026543Y006123D02*
X028600Y006123D01*
X028600Y006282D02*
X026577Y006282D01*
X026577Y006440D02*
X028600Y006440D01*
X026118Y006440D02*
X026082Y006440D01*
X026082Y006282D02*
X026118Y006282D01*
X026118Y006123D02*
X026082Y006123D01*
X026082Y005965D02*
X026118Y005965D01*
X026082Y006757D02*
X026118Y006757D01*
X026118Y006916D02*
X026082Y006916D01*
X026082Y007074D02*
X026118Y007074D01*
X026118Y007233D02*
X026082Y007233D01*
X025761Y007233D02*
X025382Y007233D01*
X025499Y007074D02*
X025656Y007074D01*
X025623Y006916D02*
X025537Y006916D01*
X025537Y006757D02*
X025623Y006757D01*
X005009Y015792D02*
X003652Y015792D01*
X003799Y015950D02*
X004770Y015950D01*
X004637Y016109D02*
X003946Y016109D01*
X003988Y016154D02*
X003988Y016154D01*
X004043Y016267D02*
X004572Y016267D01*
X004538Y016426D02*
X004119Y016426D01*
X004195Y016584D02*
X004538Y016584D01*
X004574Y016743D02*
X004226Y016743D01*
X004205Y016605D02*
X004205Y016605D01*
X004250Y016901D02*
X004640Y016901D01*
X004777Y017060D02*
X004274Y017060D01*
X004262Y017218D02*
X005025Y017218D01*
D14*
X007100Y016600D02*
X007100Y016100D01*
X004600Y013600D01*
X004600Y011100D01*
X005100Y010600D01*
X007100Y013600D02*
X009100Y011600D01*
X009100Y007100D01*
X011100Y007100D01*
X011600Y005600D02*
X013100Y005600D01*
X013100Y011600D01*
X010600Y014100D01*
X010600Y014600D01*
X010466Y014517D01*
X009600Y013600D02*
X009600Y015600D01*
X009100Y016100D01*
X009100Y016600D01*
X008813Y016683D01*
X007159Y016683D02*
X007100Y016600D01*
X007100Y014600D02*
X007159Y014517D01*
X007100Y014600D02*
X007100Y013600D01*
X009600Y013600D02*
X010100Y013100D01*
X010100Y010600D01*
X011100Y010600D01*
X014100Y010600D02*
X014100Y014600D01*
X013773Y014517D01*
X014100Y010600D02*
X017100Y010600D01*
X020600Y007100D02*
X020600Y014600D01*
X020387Y014517D01*
X022041Y014517D02*
X022100Y014600D01*
X022100Y010100D01*
X023100Y009100D01*
X023100Y005100D01*
X018100Y005100D01*
X017100Y006100D01*
X017100Y006600D01*
X020600Y007100D02*
X021100Y006600D01*
X024600Y007100D02*
X024600Y009100D01*
X025100Y009600D01*
X025100Y013100D01*
X022100Y016100D01*
X022100Y016600D01*
X022041Y016683D01*
X024600Y007100D02*
X025100Y006600D01*
X011600Y005600D02*
X010100Y004100D01*
X010100Y002600D01*
X008600Y002600D01*
M02*
