G75*
%MOIN*%
%OFA0B0*%
%FSLAX24Y24*%
%IPPOS*%
%LPD*%
%AMOC8*
5,1,8,0,0,1.08239X$1,22.5*
%
%ADD10C,0.0000*%
%ADD11C,0.0050*%
%ADD12C,0.0030*%
%ADD13C,0.0100*%
%ADD14C,0.0040*%
%ADD15C,0.0060*%
%ADD16C,0.0080*%
D10*
X000100Y000100D02*
X000100Y019596D01*
X028970Y019596D01*
X028970Y000100D01*
X000100Y000100D01*
X001970Y002600D02*
X001972Y002650D01*
X001978Y002700D01*
X001988Y002749D01*
X002002Y002797D01*
X002019Y002844D01*
X002040Y002889D01*
X002065Y002933D01*
X002093Y002974D01*
X002125Y003013D01*
X002159Y003050D01*
X002196Y003084D01*
X002236Y003114D01*
X002278Y003141D01*
X002322Y003165D01*
X002368Y003186D01*
X002415Y003202D01*
X002463Y003215D01*
X002513Y003224D01*
X002562Y003229D01*
X002613Y003230D01*
X002663Y003227D01*
X002712Y003220D01*
X002761Y003209D01*
X002809Y003194D01*
X002855Y003176D01*
X002900Y003154D01*
X002943Y003128D01*
X002984Y003099D01*
X003023Y003067D01*
X003059Y003032D01*
X003091Y002994D01*
X003121Y002954D01*
X003148Y002911D01*
X003171Y002867D01*
X003190Y002821D01*
X003206Y002773D01*
X003218Y002724D01*
X003226Y002675D01*
X003230Y002625D01*
X003230Y002575D01*
X003226Y002525D01*
X003218Y002476D01*
X003206Y002427D01*
X003190Y002379D01*
X003171Y002333D01*
X003148Y002289D01*
X003121Y002246D01*
X003091Y002206D01*
X003059Y002168D01*
X003023Y002133D01*
X002984Y002101D01*
X002943Y002072D01*
X002900Y002046D01*
X002855Y002024D01*
X002809Y002006D01*
X002761Y001991D01*
X002712Y001980D01*
X002663Y001973D01*
X002613Y001970D01*
X002562Y001971D01*
X002513Y001976D01*
X002463Y001985D01*
X002415Y001998D01*
X002368Y002014D01*
X002322Y002035D01*
X002278Y002059D01*
X002236Y002086D01*
X002196Y002116D01*
X002159Y002150D01*
X002125Y002187D01*
X002093Y002226D01*
X002065Y002267D01*
X002040Y002311D01*
X002019Y002356D01*
X002002Y002403D01*
X001988Y002451D01*
X001978Y002500D01*
X001972Y002550D01*
X001970Y002600D01*
X004718Y016502D02*
X004720Y016550D01*
X004726Y016598D01*
X004736Y016645D01*
X004749Y016691D01*
X004767Y016736D01*
X004787Y016780D01*
X004812Y016822D01*
X004840Y016861D01*
X004870Y016898D01*
X004904Y016932D01*
X004941Y016964D01*
X004979Y016993D01*
X005020Y017018D01*
X005063Y017040D01*
X005108Y017058D01*
X005154Y017072D01*
X005201Y017083D01*
X005249Y017090D01*
X005297Y017093D01*
X005345Y017092D01*
X005393Y017087D01*
X005441Y017078D01*
X005487Y017066D01*
X005532Y017049D01*
X005576Y017029D01*
X005618Y017006D01*
X005658Y016979D01*
X005696Y016949D01*
X005731Y016916D01*
X005763Y016880D01*
X005793Y016842D01*
X005819Y016801D01*
X005841Y016758D01*
X005861Y016714D01*
X005876Y016669D01*
X005888Y016622D01*
X005896Y016574D01*
X005900Y016526D01*
X005900Y016478D01*
X005896Y016430D01*
X005888Y016382D01*
X005876Y016335D01*
X005861Y016290D01*
X005841Y016246D01*
X005819Y016203D01*
X005793Y016162D01*
X005763Y016124D01*
X005731Y016088D01*
X005696Y016055D01*
X005658Y016025D01*
X005618Y015998D01*
X005576Y015975D01*
X005532Y015955D01*
X005487Y015938D01*
X005441Y015926D01*
X005393Y015917D01*
X005345Y015912D01*
X005297Y015911D01*
X005249Y015914D01*
X005201Y015921D01*
X005154Y015932D01*
X005108Y015946D01*
X005063Y015964D01*
X005020Y015986D01*
X004979Y016011D01*
X004941Y016040D01*
X004904Y016072D01*
X004870Y016106D01*
X004840Y016143D01*
X004812Y016182D01*
X004787Y016224D01*
X004767Y016268D01*
X004749Y016313D01*
X004736Y016359D01*
X004726Y016406D01*
X004720Y016454D01*
X004718Y016502D01*
X001970Y017100D02*
X001972Y017150D01*
X001978Y017200D01*
X001988Y017249D01*
X002002Y017297D01*
X002019Y017344D01*
X002040Y017389D01*
X002065Y017433D01*
X002093Y017474D01*
X002125Y017513D01*
X002159Y017550D01*
X002196Y017584D01*
X002236Y017614D01*
X002278Y017641D01*
X002322Y017665D01*
X002368Y017686D01*
X002415Y017702D01*
X002463Y017715D01*
X002513Y017724D01*
X002562Y017729D01*
X002613Y017730D01*
X002663Y017727D01*
X002712Y017720D01*
X002761Y017709D01*
X002809Y017694D01*
X002855Y017676D01*
X002900Y017654D01*
X002943Y017628D01*
X002984Y017599D01*
X003023Y017567D01*
X003059Y017532D01*
X003091Y017494D01*
X003121Y017454D01*
X003148Y017411D01*
X003171Y017367D01*
X003190Y017321D01*
X003206Y017273D01*
X003218Y017224D01*
X003226Y017175D01*
X003230Y017125D01*
X003230Y017075D01*
X003226Y017025D01*
X003218Y016976D01*
X003206Y016927D01*
X003190Y016879D01*
X003171Y016833D01*
X003148Y016789D01*
X003121Y016746D01*
X003091Y016706D01*
X003059Y016668D01*
X003023Y016633D01*
X002984Y016601D01*
X002943Y016572D01*
X002900Y016546D01*
X002855Y016524D01*
X002809Y016506D01*
X002761Y016491D01*
X002712Y016480D01*
X002663Y016473D01*
X002613Y016470D01*
X002562Y016471D01*
X002513Y016476D01*
X002463Y016485D01*
X002415Y016498D01*
X002368Y016514D01*
X002322Y016535D01*
X002278Y016559D01*
X002236Y016586D01*
X002196Y016616D01*
X002159Y016650D01*
X002125Y016687D01*
X002093Y016726D01*
X002065Y016767D01*
X002040Y016811D01*
X002019Y016856D01*
X002002Y016903D01*
X001988Y016951D01*
X001978Y017000D01*
X001972Y017050D01*
X001970Y017100D01*
X023300Y016502D02*
X023302Y016550D01*
X023308Y016598D01*
X023318Y016645D01*
X023331Y016691D01*
X023349Y016736D01*
X023369Y016780D01*
X023394Y016822D01*
X023422Y016861D01*
X023452Y016898D01*
X023486Y016932D01*
X023523Y016964D01*
X023561Y016993D01*
X023602Y017018D01*
X023645Y017040D01*
X023690Y017058D01*
X023736Y017072D01*
X023783Y017083D01*
X023831Y017090D01*
X023879Y017093D01*
X023927Y017092D01*
X023975Y017087D01*
X024023Y017078D01*
X024069Y017066D01*
X024114Y017049D01*
X024158Y017029D01*
X024200Y017006D01*
X024240Y016979D01*
X024278Y016949D01*
X024313Y016916D01*
X024345Y016880D01*
X024375Y016842D01*
X024401Y016801D01*
X024423Y016758D01*
X024443Y016714D01*
X024458Y016669D01*
X024470Y016622D01*
X024478Y016574D01*
X024482Y016526D01*
X024482Y016478D01*
X024478Y016430D01*
X024470Y016382D01*
X024458Y016335D01*
X024443Y016290D01*
X024423Y016246D01*
X024401Y016203D01*
X024375Y016162D01*
X024345Y016124D01*
X024313Y016088D01*
X024278Y016055D01*
X024240Y016025D01*
X024200Y015998D01*
X024158Y015975D01*
X024114Y015955D01*
X024069Y015938D01*
X024023Y015926D01*
X023975Y015917D01*
X023927Y015912D01*
X023879Y015911D01*
X023831Y015914D01*
X023783Y015921D01*
X023736Y015932D01*
X023690Y015946D01*
X023645Y015964D01*
X023602Y015986D01*
X023561Y016011D01*
X023523Y016040D01*
X023486Y016072D01*
X023452Y016106D01*
X023422Y016143D01*
X023394Y016182D01*
X023369Y016224D01*
X023349Y016268D01*
X023331Y016313D01*
X023318Y016359D01*
X023308Y016406D01*
X023302Y016454D01*
X023300Y016502D01*
X025970Y017100D02*
X025972Y017150D01*
X025978Y017200D01*
X025988Y017249D01*
X026002Y017297D01*
X026019Y017344D01*
X026040Y017389D01*
X026065Y017433D01*
X026093Y017474D01*
X026125Y017513D01*
X026159Y017550D01*
X026196Y017584D01*
X026236Y017614D01*
X026278Y017641D01*
X026322Y017665D01*
X026368Y017686D01*
X026415Y017702D01*
X026463Y017715D01*
X026513Y017724D01*
X026562Y017729D01*
X026613Y017730D01*
X026663Y017727D01*
X026712Y017720D01*
X026761Y017709D01*
X026809Y017694D01*
X026855Y017676D01*
X026900Y017654D01*
X026943Y017628D01*
X026984Y017599D01*
X027023Y017567D01*
X027059Y017532D01*
X027091Y017494D01*
X027121Y017454D01*
X027148Y017411D01*
X027171Y017367D01*
X027190Y017321D01*
X027206Y017273D01*
X027218Y017224D01*
X027226Y017175D01*
X027230Y017125D01*
X027230Y017075D01*
X027226Y017025D01*
X027218Y016976D01*
X027206Y016927D01*
X027190Y016879D01*
X027171Y016833D01*
X027148Y016789D01*
X027121Y016746D01*
X027091Y016706D01*
X027059Y016668D01*
X027023Y016633D01*
X026984Y016601D01*
X026943Y016572D01*
X026900Y016546D01*
X026855Y016524D01*
X026809Y016506D01*
X026761Y016491D01*
X026712Y016480D01*
X026663Y016473D01*
X026613Y016470D01*
X026562Y016471D01*
X026513Y016476D01*
X026463Y016485D01*
X026415Y016498D01*
X026368Y016514D01*
X026322Y016535D01*
X026278Y016559D01*
X026236Y016586D01*
X026196Y016616D01*
X026159Y016650D01*
X026125Y016687D01*
X026093Y016726D01*
X026065Y016767D01*
X026040Y016811D01*
X026019Y016856D01*
X026002Y016903D01*
X025988Y016951D01*
X025978Y017000D01*
X025972Y017050D01*
X025970Y017100D01*
X025970Y002600D02*
X025972Y002650D01*
X025978Y002700D01*
X025988Y002749D01*
X026002Y002797D01*
X026019Y002844D01*
X026040Y002889D01*
X026065Y002933D01*
X026093Y002974D01*
X026125Y003013D01*
X026159Y003050D01*
X026196Y003084D01*
X026236Y003114D01*
X026278Y003141D01*
X026322Y003165D01*
X026368Y003186D01*
X026415Y003202D01*
X026463Y003215D01*
X026513Y003224D01*
X026562Y003229D01*
X026613Y003230D01*
X026663Y003227D01*
X026712Y003220D01*
X026761Y003209D01*
X026809Y003194D01*
X026855Y003176D01*
X026900Y003154D01*
X026943Y003128D01*
X026984Y003099D01*
X027023Y003067D01*
X027059Y003032D01*
X027091Y002994D01*
X027121Y002954D01*
X027148Y002911D01*
X027171Y002867D01*
X027190Y002821D01*
X027206Y002773D01*
X027218Y002724D01*
X027226Y002675D01*
X027230Y002625D01*
X027230Y002575D01*
X027226Y002525D01*
X027218Y002476D01*
X027206Y002427D01*
X027190Y002379D01*
X027171Y002333D01*
X027148Y002289D01*
X027121Y002246D01*
X027091Y002206D01*
X027059Y002168D01*
X027023Y002133D01*
X026984Y002101D01*
X026943Y002072D01*
X026900Y002046D01*
X026855Y002024D01*
X026809Y002006D01*
X026761Y001991D01*
X026712Y001980D01*
X026663Y001973D01*
X026613Y001970D01*
X026562Y001971D01*
X026513Y001976D01*
X026463Y001985D01*
X026415Y001998D01*
X026368Y002014D01*
X026322Y002035D01*
X026278Y002059D01*
X026236Y002086D01*
X026196Y002116D01*
X026159Y002150D01*
X026125Y002187D01*
X026093Y002226D01*
X026065Y002267D01*
X026040Y002311D01*
X026019Y002356D01*
X026002Y002403D01*
X025988Y002451D01*
X025978Y002500D01*
X025972Y002550D01*
X025970Y002600D01*
D11*
X024396Y001425D02*
X024246Y001425D01*
X024321Y001500D02*
X024321Y001200D01*
X024396Y001125D01*
X024086Y001125D02*
X024086Y001425D01*
X023786Y001425D02*
X023786Y001200D01*
X023861Y001125D01*
X024086Y001125D01*
X023626Y001200D02*
X023626Y001350D01*
X023551Y001425D01*
X023400Y001425D01*
X023325Y001350D01*
X023325Y001200D01*
X023400Y001125D01*
X023551Y001125D01*
X023626Y001200D01*
X023167Y001125D02*
X022942Y001275D01*
X023167Y001425D01*
X022942Y001575D02*
X022942Y001125D01*
X022782Y001125D02*
X022556Y001125D01*
X022481Y001200D01*
X022556Y001275D01*
X022782Y001275D01*
X022782Y001350D02*
X022782Y001125D01*
X022782Y001350D02*
X022707Y001425D01*
X022556Y001425D01*
X022321Y001350D02*
X022321Y001275D01*
X022021Y001275D01*
X022021Y001200D02*
X022021Y001350D01*
X022096Y001425D01*
X022246Y001425D01*
X022321Y001350D01*
X022246Y001125D02*
X022096Y001125D01*
X022021Y001200D01*
X021862Y001425D02*
X021787Y001425D01*
X021637Y001275D01*
X021637Y001125D02*
X021637Y001425D01*
X021477Y001425D02*
X021402Y001350D01*
X021177Y001350D01*
X021177Y001125D02*
X021402Y001125D01*
X021477Y001200D01*
X021477Y001275D01*
X021402Y001350D01*
X021477Y001425D02*
X021477Y001500D01*
X021402Y001575D01*
X021177Y001575D01*
X021177Y001125D01*
X021017Y001125D02*
X020717Y001575D01*
X020556Y001575D02*
X020256Y001575D01*
X020406Y001575D02*
X020406Y001125D01*
X020096Y001125D02*
X020096Y001425D01*
X019946Y001575D01*
X019796Y001425D01*
X019796Y001125D01*
X019796Y001350D02*
X020096Y001350D01*
X019636Y001575D02*
X019335Y001125D01*
X019175Y001125D02*
X019175Y001350D01*
X019100Y001425D01*
X018950Y001425D01*
X018875Y001350D01*
X018875Y001575D02*
X018875Y001125D01*
X018415Y001125D02*
X018715Y001575D01*
X018795Y001775D02*
X018870Y001775D01*
X018945Y001850D01*
X018945Y002225D01*
X018720Y002225D01*
X018645Y002150D01*
X018645Y002000D01*
X018720Y001925D01*
X018945Y001925D01*
X018486Y002225D02*
X018411Y002225D01*
X018261Y002075D01*
X018261Y001925D02*
X018261Y002225D01*
X018101Y002150D02*
X018026Y002225D01*
X017876Y002225D01*
X017801Y002150D01*
X017801Y002000D01*
X017876Y001925D01*
X018026Y001925D01*
X018101Y002075D02*
X017801Y002075D01*
X017641Y002000D02*
X017565Y001925D01*
X017340Y001925D01*
X017340Y002375D01*
X017340Y002225D02*
X017565Y002225D01*
X017641Y002150D01*
X017641Y002000D01*
X017180Y001925D02*
X016955Y001925D01*
X016880Y002000D01*
X016880Y002150D01*
X016955Y002225D01*
X017180Y002225D01*
X017180Y002375D02*
X017180Y001925D01*
X016723Y001925D02*
X016573Y001925D01*
X016648Y001925D02*
X016648Y002375D01*
X016573Y002375D01*
X016413Y002150D02*
X016338Y002225D01*
X016188Y002225D01*
X016113Y002150D01*
X016113Y002000D01*
X016188Y001925D01*
X016338Y001925D01*
X016413Y002000D01*
X016413Y002150D01*
X015952Y002150D02*
X015802Y002150D01*
X015952Y002150D02*
X015952Y002000D01*
X015877Y001925D01*
X015727Y001925D01*
X015652Y002000D01*
X015652Y002300D01*
X015727Y002375D01*
X015877Y002375D01*
X015952Y002300D01*
X015876Y002625D02*
X015651Y002625D01*
X015575Y002700D01*
X015575Y002925D01*
X015415Y002850D02*
X015340Y002925D01*
X015190Y002925D01*
X015115Y002850D01*
X015115Y002700D01*
X015190Y002625D01*
X015340Y002625D01*
X015415Y002700D01*
X015415Y002850D01*
X015876Y002925D02*
X015876Y002625D01*
X016111Y002700D02*
X016186Y002625D01*
X016111Y002700D02*
X016111Y003000D01*
X016036Y002925D02*
X016186Y002925D01*
X016803Y002850D02*
X017028Y002850D01*
X017103Y002775D01*
X017103Y002700D01*
X017028Y002625D01*
X016803Y002625D01*
X016803Y003075D01*
X017028Y003075D01*
X017103Y003000D01*
X017103Y002925D01*
X017028Y002850D01*
X017264Y002850D02*
X017264Y002700D01*
X017339Y002625D01*
X017489Y002625D01*
X017564Y002700D01*
X017564Y002850D01*
X017489Y002925D01*
X017339Y002925D01*
X017264Y002850D01*
X017724Y002700D02*
X017799Y002775D01*
X018024Y002775D01*
X018024Y002850D02*
X018024Y002625D01*
X017799Y002625D01*
X017724Y002700D01*
X017799Y002925D02*
X017949Y002925D01*
X018024Y002850D01*
X018184Y002775D02*
X018334Y002925D01*
X018410Y002925D01*
X018568Y002850D02*
X018643Y002925D01*
X018868Y002925D01*
X018868Y003075D02*
X018868Y002625D01*
X018643Y002625D01*
X018568Y002700D01*
X018568Y002850D01*
X018184Y002925D02*
X018184Y002625D01*
X018101Y002150D02*
X018101Y002075D01*
X017794Y001575D02*
X017494Y001125D01*
X017334Y001125D02*
X017334Y001350D01*
X017259Y001425D01*
X017183Y001350D01*
X017183Y001125D01*
X017033Y001125D02*
X017033Y001425D01*
X017108Y001425D01*
X017183Y001350D01*
X016873Y001350D02*
X016798Y001425D01*
X016648Y001425D01*
X016573Y001350D01*
X016573Y001200D01*
X016648Y001125D01*
X016798Y001125D01*
X016873Y001200D01*
X016873Y001350D01*
X016413Y001425D02*
X016188Y001425D01*
X016113Y001350D01*
X016113Y001200D01*
X016188Y001125D01*
X016413Y001125D01*
X015957Y001125D02*
X015882Y001125D01*
X015882Y001200D01*
X015957Y001200D01*
X015957Y001125D01*
X015722Y001125D02*
X015497Y001125D01*
X015422Y001200D01*
X015422Y001350D01*
X015497Y001425D01*
X015722Y001425D01*
X015722Y001050D01*
X015647Y000975D01*
X015572Y000975D01*
X015038Y001125D02*
X015038Y001425D01*
X015038Y001275D02*
X015188Y001425D01*
X015264Y001425D01*
X014878Y001350D02*
X014803Y001425D01*
X014653Y001425D01*
X014578Y001350D01*
X014578Y001200D01*
X014653Y001125D01*
X014803Y001125D01*
X014878Y001200D01*
X014878Y001350D01*
X014418Y001350D02*
X014343Y001425D01*
X014118Y001425D01*
X014118Y001575D02*
X014118Y001125D01*
X014343Y001125D01*
X014418Y001200D01*
X014418Y001350D01*
X013957Y001350D02*
X013957Y001275D01*
X013657Y001275D01*
X013657Y001200D02*
X013657Y001350D01*
X013732Y001425D01*
X013882Y001425D01*
X013957Y001350D01*
X013882Y001125D02*
X013732Y001125D01*
X013657Y001200D01*
X013500Y001125D02*
X013350Y001125D01*
X013425Y001125D02*
X013425Y001575D01*
X013350Y001575D01*
X013190Y001575D02*
X013190Y001125D01*
X012965Y001125D01*
X012890Y001200D01*
X012890Y001350D01*
X012965Y001425D01*
X013190Y001425D01*
X012730Y001350D02*
X012730Y001125D01*
X012730Y001350D02*
X012655Y001425D01*
X012429Y001425D01*
X012429Y001125D01*
X012269Y001125D02*
X012269Y001425D01*
X011969Y001425D02*
X011969Y001200D01*
X012044Y001125D01*
X012269Y001125D01*
X011811Y001425D02*
X011736Y001425D01*
X011585Y001275D01*
X011585Y001125D02*
X011585Y001425D01*
X011425Y001425D02*
X011200Y001425D01*
X011125Y001350D01*
X011125Y001200D01*
X011200Y001125D01*
X011425Y001125D01*
X011425Y001050D02*
X011425Y001425D01*
X011425Y001050D02*
X011350Y000975D01*
X011275Y000975D01*
X011736Y001775D02*
X011811Y001775D01*
X011886Y001850D01*
X011886Y002225D01*
X011585Y002225D02*
X011585Y002000D01*
X011660Y001925D01*
X011886Y001925D01*
X011425Y002000D02*
X011425Y002150D01*
X011350Y002225D01*
X011125Y002225D01*
X011125Y002375D02*
X011125Y001925D01*
X011350Y001925D01*
X011425Y002000D01*
X011425Y002625D02*
X011425Y002925D01*
X011275Y003075D01*
X011125Y002925D01*
X011125Y002625D01*
X011125Y002850D02*
X011425Y002850D01*
X011585Y003075D02*
X011886Y003075D01*
X011736Y003075D02*
X011736Y002625D01*
X012046Y002625D02*
X012346Y003075D01*
X012046Y003075D02*
X012346Y002625D01*
X012581Y002375D02*
X012506Y002300D01*
X012506Y002000D01*
X012581Y001925D01*
X012731Y001925D01*
X012806Y002000D01*
X012806Y002150D01*
X012656Y002150D01*
X012806Y002300D02*
X012731Y002375D01*
X012581Y002375D01*
X012967Y002150D02*
X013042Y002225D01*
X013192Y002225D01*
X013267Y002150D01*
X013267Y002075D01*
X012967Y002075D01*
X012967Y002000D02*
X012967Y002150D01*
X012967Y002000D02*
X013042Y001925D01*
X013192Y001925D01*
X013427Y002000D02*
X013502Y001925D01*
X013652Y001925D01*
X013727Y002000D01*
X013727Y002150D01*
X013652Y002225D01*
X013502Y002225D01*
X013427Y002150D01*
X013427Y002000D01*
X013887Y001925D02*
X013887Y002225D01*
X013887Y002075D02*
X014037Y002225D01*
X014113Y002225D01*
X014271Y002150D02*
X014271Y002000D01*
X014346Y001925D01*
X014571Y001925D01*
X014571Y001850D02*
X014571Y002225D01*
X014346Y002225D01*
X014271Y002150D01*
X014421Y001775D02*
X014496Y001775D01*
X014571Y001850D01*
X014731Y002000D02*
X014806Y001925D01*
X014957Y001925D01*
X015032Y002075D02*
X014731Y002075D01*
X014731Y002000D02*
X014731Y002150D01*
X014806Y002225D01*
X014957Y002225D01*
X015032Y002150D01*
X015032Y002075D01*
X014957Y002625D02*
X014731Y002775D01*
X014957Y002925D01*
X014731Y003075D02*
X014731Y002625D01*
X014571Y002625D02*
X014346Y002625D01*
X014271Y002700D01*
X014346Y002775D01*
X014571Y002775D01*
X014571Y002850D02*
X014571Y002625D01*
X014571Y002850D02*
X014496Y002925D01*
X014346Y002925D01*
X014111Y002850D02*
X014111Y002775D01*
X013811Y002775D01*
X013811Y002700D02*
X013811Y002850D01*
X013886Y002925D01*
X014036Y002925D01*
X014111Y002850D01*
X014036Y002625D02*
X013886Y002625D01*
X013811Y002700D01*
X013652Y002925D02*
X013577Y002925D01*
X013427Y002775D01*
X013427Y002625D02*
X013427Y002925D01*
X013267Y002925D02*
X013267Y003000D01*
X013192Y003075D01*
X012967Y003075D01*
X012967Y002625D01*
X013192Y002625D01*
X013267Y002700D01*
X013267Y002775D01*
X013192Y002850D01*
X012967Y002850D01*
X013192Y002850D02*
X013267Y002925D01*
X017954Y001425D02*
X017954Y000975D01*
X017954Y001125D02*
X018179Y001125D01*
X018254Y001200D01*
X018254Y001350D01*
X018179Y001425D01*
X017954Y001425D01*
X019566Y002075D02*
X019716Y001925D01*
X019872Y002000D02*
X020173Y002300D01*
X020173Y002000D01*
X020098Y001925D01*
X019948Y001925D01*
X019872Y002000D01*
X019872Y002300D01*
X019948Y002375D01*
X020098Y002375D01*
X020173Y002300D01*
X020333Y002375D02*
X020333Y002150D01*
X020483Y002225D01*
X020558Y002225D01*
X020633Y002150D01*
X020633Y002000D01*
X020558Y001925D01*
X020408Y001925D01*
X020333Y002000D01*
X020333Y002375D02*
X020633Y002375D01*
X020481Y002625D02*
X020331Y002625D01*
X020256Y002700D01*
X020256Y002850D01*
X020331Y002925D01*
X020481Y002925D01*
X020556Y002850D01*
X020556Y002775D01*
X020256Y002775D01*
X020096Y002850D02*
X020021Y002775D01*
X019796Y002775D01*
X019946Y002775D02*
X020096Y002625D01*
X020096Y002850D02*
X020096Y003000D01*
X020021Y003075D01*
X019796Y003075D01*
X019796Y002625D01*
X019639Y002625D02*
X019489Y002775D01*
X019489Y002925D01*
X019639Y003075D01*
X019716Y002375D02*
X019566Y002225D01*
X019566Y002075D01*
X020793Y001925D02*
X021093Y002375D01*
X021254Y002300D02*
X021329Y002375D01*
X021479Y002375D01*
X021554Y002300D01*
X021554Y002225D01*
X021254Y001925D01*
X021554Y001925D01*
X021714Y002000D02*
X021789Y001925D01*
X021939Y001925D01*
X022014Y002000D01*
X022014Y002300D01*
X021714Y002000D01*
X021714Y002300D01*
X021789Y002375D01*
X021939Y002375D01*
X022014Y002300D01*
X022174Y002225D02*
X022325Y002375D01*
X022325Y001925D01*
X022475Y001925D02*
X022174Y001925D01*
X022635Y002150D02*
X022935Y002150D01*
X022860Y001925D02*
X022860Y002375D01*
X022635Y002150D01*
X023095Y001925D02*
X023245Y002075D01*
X023245Y002225D01*
X023095Y002375D01*
X022788Y002625D02*
X022938Y002775D01*
X022938Y002925D01*
X022788Y003075D01*
X022478Y003075D02*
X022478Y002625D01*
X022328Y002625D02*
X022628Y002625D01*
X022328Y002925D02*
X022478Y003075D01*
X022173Y002700D02*
X022173Y002625D01*
X022098Y002625D01*
X022098Y002700D01*
X022173Y002700D01*
X021938Y002700D02*
X021862Y002625D01*
X021712Y002625D01*
X021637Y002700D01*
X021938Y003000D01*
X021938Y002700D01*
X021637Y002700D02*
X021637Y003000D01*
X021712Y003075D01*
X021862Y003075D01*
X021938Y003000D01*
X021017Y002925D02*
X020867Y002625D01*
X020717Y002925D01*
X021017Y001575D02*
X020717Y001125D01*
D12*
X008585Y004115D02*
X008215Y004115D01*
X008215Y004300D01*
X008276Y004362D01*
X008400Y004362D01*
X008462Y004300D01*
X008462Y004115D01*
X008523Y004483D02*
X008585Y004545D01*
X008585Y004668D01*
X008523Y004730D01*
X008462Y004730D01*
X008400Y004668D01*
X008400Y004545D01*
X008338Y004483D01*
X008276Y004483D01*
X008215Y004545D01*
X008215Y004668D01*
X008276Y004730D01*
X008276Y004852D02*
X008523Y004852D01*
X008585Y004913D01*
X008585Y005037D01*
X008523Y005099D01*
X008276Y005099D01*
X008215Y005037D01*
X008215Y004913D01*
X008276Y004852D01*
X008215Y005220D02*
X008585Y005220D01*
X008462Y005220D02*
X008215Y005467D01*
X008400Y005282D02*
X008585Y005467D01*
X007585Y005467D02*
X007215Y005467D01*
X007215Y005220D02*
X007585Y005467D01*
X007585Y005220D02*
X007215Y005220D01*
X007276Y005099D02*
X007215Y005037D01*
X007215Y004913D01*
X007276Y004852D01*
X007523Y004852D01*
X007585Y004913D01*
X007585Y005037D01*
X007523Y005099D01*
X007276Y005099D01*
X007276Y004730D02*
X007215Y004668D01*
X007215Y004545D01*
X007276Y004483D01*
X007338Y004483D01*
X007400Y004545D01*
X007400Y004668D01*
X007462Y004730D01*
X007523Y004730D01*
X007585Y004668D01*
X007585Y004545D01*
X007523Y004483D01*
X007400Y004362D02*
X007462Y004300D01*
X007462Y004115D01*
X007585Y004115D02*
X007215Y004115D01*
X007215Y004300D01*
X007276Y004362D01*
X007400Y004362D01*
X006585Y004300D02*
X006523Y004362D01*
X006400Y004362D01*
X006400Y004238D01*
X006523Y004115D02*
X006585Y004177D01*
X006585Y004300D01*
X006585Y004483D02*
X006215Y004483D01*
X006585Y004730D01*
X006215Y004730D01*
X006215Y004852D02*
X006215Y005037D01*
X006276Y005099D01*
X006523Y005099D01*
X006585Y005037D01*
X006585Y004852D01*
X006215Y004852D01*
X006276Y004362D02*
X006215Y004300D01*
X006215Y004177D01*
X006276Y004115D01*
X006523Y004115D01*
X005585Y004177D02*
X005523Y004115D01*
X005585Y004177D02*
X005585Y004300D01*
X005523Y004362D01*
X005400Y004362D01*
X005338Y004300D01*
X005338Y004238D01*
X005400Y004115D01*
X005215Y004115D01*
X005215Y004362D01*
X005215Y004483D02*
X005462Y004483D01*
X005585Y004607D01*
X005462Y004730D01*
X005215Y004730D01*
X005276Y004852D02*
X005215Y004913D01*
X005215Y005037D01*
X005276Y005099D01*
X005215Y005220D02*
X005215Y005405D01*
X005276Y005467D01*
X005338Y005467D01*
X005400Y005405D01*
X005400Y005220D01*
X005462Y005099D02*
X005523Y005099D01*
X005585Y005037D01*
X005585Y004913D01*
X005523Y004852D01*
X005400Y004913D02*
X005400Y005037D01*
X005462Y005099D01*
X005585Y005220D02*
X005215Y005220D01*
X005400Y005405D02*
X005462Y005467D01*
X005523Y005467D01*
X005585Y005405D01*
X005585Y005220D01*
X005400Y004913D02*
X005338Y004852D01*
X005276Y004852D01*
D13*
X005100Y003850D02*
X005100Y003100D01*
X009100Y003100D01*
X009100Y001350D01*
X005100Y001350D01*
X005100Y003100D01*
X005100Y003850D02*
X009100Y003850D01*
X009100Y003100D01*
X008600Y005850D02*
X006600Y005850D01*
X006600Y007600D01*
X008600Y007600D01*
X008600Y005850D01*
X010600Y005850D02*
X010600Y007600D01*
X012600Y007600D01*
X012600Y005850D01*
X010600Y005850D01*
X010600Y007600D02*
X010600Y008350D01*
X012600Y008350D01*
X012600Y007600D01*
X012600Y009350D02*
X010600Y009350D01*
X010600Y011100D01*
X012600Y011100D01*
X012600Y009350D01*
X012600Y011100D02*
X012600Y011850D01*
X010600Y011850D01*
X010600Y011100D01*
X008600Y008350D02*
X006600Y008350D01*
X006600Y007600D01*
X004600Y007600D02*
X002600Y007600D01*
X002600Y008350D01*
X004600Y008350D01*
X004600Y007600D01*
X004600Y005850D01*
X002600Y005850D01*
X002600Y007600D01*
X004600Y009350D02*
X004600Y011100D01*
X006600Y011100D01*
X006600Y009350D01*
X004600Y009350D01*
X004600Y011100D02*
X004600Y011850D01*
X006600Y011850D01*
X006600Y011100D01*
X006135Y013671D02*
X006135Y017372D01*
X023065Y017372D01*
X023065Y014734D01*
X023093Y014732D01*
X023121Y014727D01*
X023148Y014717D01*
X023174Y014705D01*
X023197Y014689D01*
X023218Y014670D01*
X023237Y014649D01*
X023253Y014626D01*
X023265Y014600D01*
X023275Y014573D01*
X023280Y014545D01*
X023282Y014517D01*
X023280Y014489D01*
X023275Y014461D01*
X023265Y014434D01*
X023253Y014409D01*
X023237Y014385D01*
X023218Y014364D01*
X023197Y014345D01*
X023174Y014329D01*
X023148Y014317D01*
X023121Y014307D01*
X023093Y014302D01*
X023065Y014300D01*
X023065Y014301D02*
X023065Y013671D01*
X006135Y013671D01*
X006096Y016112D02*
X005820Y016112D01*
X005860Y016152D02*
X005831Y016111D01*
X005799Y016072D01*
X005764Y016035D01*
X005727Y016002D01*
X005687Y015971D01*
X005645Y015944D01*
X005601Y015919D01*
X005555Y015899D01*
X005507Y015882D01*
X005459Y015868D01*
X005409Y015859D01*
X005359Y015853D01*
X005309Y015851D01*
X005259Y015853D01*
X005209Y015859D01*
X005159Y015868D01*
X005111Y015882D01*
X005063Y015899D01*
X005017Y015919D01*
X004973Y015944D01*
X004931Y015971D01*
X004891Y016002D01*
X004854Y016035D01*
X004819Y016072D01*
X004787Y016111D01*
X004758Y016152D01*
X004757Y016151D02*
X004757Y016860D01*
X004758Y016860D02*
X004787Y016901D01*
X004819Y016940D01*
X004854Y016977D01*
X004891Y017010D01*
X004931Y017041D01*
X004973Y017068D01*
X005017Y017093D01*
X005063Y017113D01*
X005111Y017130D01*
X005159Y017144D01*
X005209Y017153D01*
X005259Y017159D01*
X005309Y017161D01*
X005359Y017159D01*
X005409Y017153D01*
X005459Y017144D01*
X005507Y017130D01*
X005555Y017113D01*
X005601Y017093D01*
X005645Y017068D01*
X005687Y017041D01*
X005727Y017010D01*
X005764Y016977D01*
X005799Y016940D01*
X005831Y016901D01*
X005860Y016860D01*
X005820Y016899D02*
X006096Y016899D01*
X016600Y011850D02*
X016600Y011100D01*
X018600Y011100D01*
X018600Y009350D01*
X016600Y009350D01*
X016600Y011100D01*
X016600Y011850D02*
X018600Y011850D01*
X018600Y011100D01*
X022600Y011100D02*
X022600Y009350D01*
X024600Y009350D01*
X024600Y011100D01*
X022600Y011100D01*
X022600Y011850D01*
X024600Y011850D01*
X024600Y011100D01*
X024600Y007850D02*
X024600Y007100D01*
X026600Y007100D01*
X026600Y005350D01*
X024600Y005350D01*
X024600Y007100D01*
X024600Y007850D02*
X026600Y007850D01*
X026600Y007100D01*
X022600Y007100D02*
X022600Y005350D01*
X020600Y005350D01*
X020600Y007100D01*
X022600Y007100D01*
X022600Y007850D01*
X020600Y007850D01*
X020600Y007100D01*
X018600Y007100D02*
X016600Y007100D01*
X016600Y007850D01*
X018600Y007850D01*
X018600Y007100D01*
X018600Y005350D01*
X016600Y005350D01*
X016600Y007100D01*
X008600Y007600D02*
X008600Y008350D01*
X023104Y016112D02*
X023380Y016112D01*
X023340Y016860D02*
X023369Y016901D01*
X023401Y016940D01*
X023436Y016977D01*
X023473Y017010D01*
X023513Y017041D01*
X023555Y017068D01*
X023599Y017093D01*
X023645Y017113D01*
X023693Y017130D01*
X023741Y017144D01*
X023791Y017153D01*
X023841Y017159D01*
X023891Y017161D01*
X023941Y017159D01*
X023991Y017153D01*
X024041Y017144D01*
X024089Y017130D01*
X024137Y017113D01*
X024183Y017093D01*
X024227Y017068D01*
X024269Y017041D01*
X024309Y017010D01*
X024346Y016977D01*
X024381Y016940D01*
X024413Y016901D01*
X024442Y016860D01*
X024443Y016860D02*
X024443Y016151D01*
X024442Y016152D02*
X024413Y016111D01*
X024381Y016072D01*
X024346Y016035D01*
X024309Y016002D01*
X024269Y015971D01*
X024227Y015944D01*
X024183Y015919D01*
X024137Y015899D01*
X024089Y015882D01*
X024041Y015868D01*
X023991Y015859D01*
X023941Y015853D01*
X023891Y015851D01*
X023841Y015853D01*
X023791Y015859D01*
X023741Y015868D01*
X023693Y015882D01*
X023645Y015899D01*
X023599Y015919D01*
X023555Y015944D01*
X023513Y015971D01*
X023473Y016002D01*
X023436Y016035D01*
X023401Y016072D01*
X023369Y016111D01*
X023340Y016152D01*
X023380Y016899D02*
X023104Y016899D01*
D14*
X023038Y013330D02*
X022962Y013254D01*
X022962Y012947D01*
X023268Y013254D01*
X023268Y012947D01*
X023192Y012870D01*
X023038Y012870D01*
X022962Y012947D01*
X022808Y012870D02*
X022501Y012870D01*
X022808Y013177D01*
X022808Y013254D01*
X022731Y013330D01*
X022578Y013330D01*
X022501Y013254D01*
X022348Y013330D02*
X022041Y012870D01*
X022348Y012870D02*
X022041Y013330D01*
X021887Y013330D02*
X021580Y013330D01*
X021734Y013330D02*
X021734Y012870D01*
X021427Y012870D02*
X021427Y013177D01*
X021273Y013330D01*
X021120Y013177D01*
X021120Y012870D01*
X021120Y013100D02*
X021427Y013100D01*
X022620Y012480D02*
X022860Y012120D01*
X022988Y012180D02*
X023048Y012120D01*
X023168Y012120D01*
X023229Y012180D01*
X023229Y012300D01*
X023168Y012360D01*
X023108Y012360D01*
X022988Y012300D01*
X022988Y012480D01*
X023229Y012480D01*
X023357Y012360D02*
X023477Y012480D01*
X023597Y012360D01*
X023597Y012120D01*
X023597Y012300D02*
X023357Y012300D01*
X023357Y012360D02*
X023357Y012120D01*
X022860Y012480D02*
X022620Y012120D01*
X023038Y013330D02*
X023192Y013330D01*
X023268Y013254D01*
X017597Y012420D02*
X017597Y012360D01*
X017537Y012300D01*
X017357Y012300D01*
X017229Y012300D02*
X017229Y012180D01*
X017168Y012120D01*
X017048Y012120D01*
X016988Y012180D01*
X016988Y012300D02*
X017108Y012360D01*
X017168Y012360D01*
X017229Y012300D01*
X017229Y012480D02*
X016988Y012480D01*
X016988Y012300D01*
X016860Y012120D02*
X016620Y012480D01*
X016860Y012480D02*
X016620Y012120D01*
X017357Y012120D02*
X017357Y012480D01*
X017537Y012480D01*
X017597Y012420D01*
X017537Y012300D02*
X017597Y012240D01*
X017597Y012180D01*
X017537Y012120D01*
X017357Y012120D01*
X017168Y008480D02*
X017048Y008480D01*
X016988Y008420D01*
X016860Y008480D02*
X016620Y008120D01*
X016860Y008120D02*
X016620Y008480D01*
X017108Y008300D02*
X017168Y008300D01*
X017229Y008240D01*
X017229Y008180D01*
X017168Y008120D01*
X017048Y008120D01*
X016988Y008180D01*
X017168Y008300D02*
X017229Y008360D01*
X017229Y008420D01*
X017168Y008480D01*
X017541Y008420D02*
X017601Y008480D01*
X017721Y008480D01*
X017781Y008420D01*
X017781Y008360D01*
X017721Y008300D01*
X017781Y008240D01*
X017781Y008180D01*
X017721Y008120D01*
X017601Y008120D01*
X017541Y008180D01*
X017417Y008180D02*
X017417Y008120D01*
X017357Y008120D01*
X017357Y008180D01*
X017417Y008180D01*
X017661Y008300D02*
X017721Y008300D01*
X017909Y008300D02*
X018149Y008300D01*
X018149Y008360D02*
X018149Y008120D01*
X017909Y008120D02*
X017909Y008360D01*
X018029Y008480D01*
X018149Y008360D01*
X020620Y008480D02*
X020860Y008120D01*
X020988Y008180D02*
X021048Y008120D01*
X021168Y008120D01*
X021229Y008180D01*
X021229Y008240D01*
X021168Y008300D01*
X021108Y008300D01*
X021168Y008300D02*
X021229Y008360D01*
X021229Y008420D01*
X021168Y008480D01*
X021048Y008480D01*
X020988Y008420D01*
X020860Y008480D02*
X020620Y008120D01*
X021357Y008120D02*
X021417Y008120D01*
X021417Y008180D01*
X021357Y008180D01*
X021357Y008120D01*
X021541Y008180D02*
X021601Y008120D01*
X021721Y008120D01*
X021781Y008180D01*
X021781Y008240D01*
X021721Y008300D01*
X021661Y008300D01*
X021721Y008300D02*
X021781Y008360D01*
X021781Y008420D01*
X021721Y008480D01*
X021601Y008480D01*
X021541Y008420D01*
X021909Y008480D02*
X021909Y008120D01*
X022089Y008120D01*
X022149Y008180D01*
X022149Y008240D01*
X022089Y008300D01*
X021909Y008300D01*
X022089Y008300D02*
X022149Y008360D01*
X022149Y008420D01*
X022089Y008480D01*
X021909Y008480D01*
X024620Y008480D02*
X024860Y008120D01*
X024988Y008180D02*
X025048Y008120D01*
X025168Y008120D01*
X025229Y008180D01*
X025229Y008240D01*
X025168Y008300D01*
X025108Y008300D01*
X025168Y008300D02*
X025229Y008360D01*
X025229Y008420D01*
X025168Y008480D01*
X025048Y008480D01*
X024988Y008420D01*
X024860Y008480D02*
X024620Y008120D01*
X025357Y008120D02*
X025417Y008120D01*
X025417Y008180D01*
X025357Y008180D01*
X025357Y008120D01*
X025541Y008180D02*
X025601Y008120D01*
X025721Y008120D01*
X025781Y008180D01*
X025781Y008240D01*
X025721Y008300D01*
X025661Y008300D01*
X025721Y008300D02*
X025781Y008360D01*
X025781Y008420D01*
X025721Y008480D01*
X025601Y008480D01*
X025541Y008420D01*
X025909Y008420D02*
X025909Y008180D01*
X025969Y008120D01*
X026089Y008120D01*
X026149Y008180D01*
X026149Y008420D02*
X026089Y008480D01*
X025969Y008480D01*
X025909Y008420D01*
X011597Y008620D02*
X011357Y008620D01*
X011597Y008860D01*
X011597Y008920D01*
X011537Y008980D01*
X011417Y008980D01*
X011357Y008920D01*
X011108Y008980D02*
X011108Y008620D01*
X010988Y008620D02*
X011229Y008620D01*
X010988Y008860D02*
X011108Y008980D01*
X010860Y008980D02*
X010620Y008620D01*
X010860Y008620D02*
X010620Y008980D01*
X007597Y008980D02*
X007357Y008980D01*
X007357Y008800D01*
X007477Y008860D01*
X007537Y008860D01*
X007597Y008800D01*
X007597Y008680D01*
X007537Y008620D01*
X007417Y008620D01*
X007357Y008680D01*
X007229Y008800D02*
X006988Y008800D01*
X006860Y008620D02*
X006620Y008980D01*
X006860Y008980D02*
X006620Y008620D01*
X003965Y008620D02*
X003725Y008620D01*
X003965Y008860D01*
X003965Y008920D01*
X003905Y008980D01*
X003785Y008980D01*
X003725Y008920D01*
X003477Y008980D02*
X003357Y008860D01*
X003229Y008800D02*
X002988Y008800D01*
X002860Y008620D02*
X002620Y008980D01*
X002860Y008980D02*
X002620Y008620D01*
X003357Y008620D02*
X003597Y008620D01*
X003477Y008620D02*
X003477Y008980D01*
X004620Y012120D02*
X004860Y012480D01*
X004988Y012480D02*
X004988Y012300D01*
X005108Y012360D01*
X005168Y012360D01*
X005229Y012300D01*
X005229Y012180D01*
X005168Y012120D01*
X005048Y012120D01*
X004988Y012180D01*
X004860Y012120D02*
X004620Y012480D01*
X004988Y012480D02*
X005229Y012480D01*
X005357Y012480D02*
X005537Y012480D01*
X005597Y012420D01*
X005597Y012180D01*
X005537Y012120D01*
X005357Y012120D01*
X005357Y012480D01*
X010620Y012480D02*
X010860Y012120D01*
X010988Y012180D02*
X011048Y012120D01*
X011168Y012120D01*
X011229Y012180D01*
X011229Y012300D01*
X011168Y012360D01*
X011108Y012360D01*
X010988Y012300D01*
X010988Y012480D01*
X011229Y012480D01*
X011357Y012420D02*
X011357Y012180D01*
X011417Y012120D01*
X011537Y012120D01*
X011597Y012180D01*
X011597Y012420D02*
X011537Y012480D01*
X011417Y012480D01*
X011357Y012420D01*
X010860Y012480D02*
X010620Y012120D01*
X006651Y000980D02*
X006531Y000980D01*
X006470Y000920D01*
X006470Y000680D01*
X006531Y000620D01*
X006651Y000620D01*
X006711Y000680D01*
X006711Y000920D02*
X006651Y000980D01*
X006342Y000920D02*
X006282Y000980D01*
X006162Y000980D01*
X006102Y000920D01*
X006102Y000860D01*
X006162Y000800D01*
X006282Y000800D01*
X006342Y000740D01*
X006342Y000680D01*
X006282Y000620D01*
X006162Y000620D01*
X006102Y000680D01*
X005977Y000620D02*
X005857Y000620D01*
X005917Y000620D02*
X005917Y000980D01*
X005857Y000980D02*
X005977Y000980D01*
X005729Y000980D02*
X005729Y000620D01*
X005488Y000620D02*
X005488Y000980D01*
X005608Y000860D01*
X005729Y000980D01*
X005360Y000980D02*
X005120Y000620D01*
X005360Y000620D02*
X005120Y000980D01*
D15*
X001250Y002600D02*
X001252Y002673D01*
X001258Y002746D01*
X001268Y002818D01*
X001282Y002890D01*
X001299Y002961D01*
X001321Y003031D01*
X001346Y003100D01*
X001375Y003167D01*
X001407Y003232D01*
X001443Y003296D01*
X001483Y003358D01*
X001525Y003417D01*
X001571Y003474D01*
X001620Y003528D01*
X001672Y003580D01*
X001726Y003629D01*
X001783Y003675D01*
X001842Y003717D01*
X001904Y003757D01*
X001968Y003793D01*
X002033Y003825D01*
X002100Y003854D01*
X002169Y003879D01*
X002239Y003901D01*
X002310Y003918D01*
X002382Y003932D01*
X002454Y003942D01*
X002527Y003948D01*
X002600Y003950D01*
X002673Y003948D01*
X002746Y003942D01*
X002818Y003932D01*
X002890Y003918D01*
X002961Y003901D01*
X003031Y003879D01*
X003100Y003854D01*
X003167Y003825D01*
X003232Y003793D01*
X003296Y003757D01*
X003358Y003717D01*
X003417Y003675D01*
X003474Y003629D01*
X003528Y003580D01*
X003580Y003528D01*
X003629Y003474D01*
X003675Y003417D01*
X003717Y003358D01*
X003757Y003296D01*
X003793Y003232D01*
X003825Y003167D01*
X003854Y003100D01*
X003879Y003031D01*
X003901Y002961D01*
X003918Y002890D01*
X003932Y002818D01*
X003942Y002746D01*
X003948Y002673D01*
X003950Y002600D01*
X003948Y002527D01*
X003942Y002454D01*
X003932Y002382D01*
X003918Y002310D01*
X003901Y002239D01*
X003879Y002169D01*
X003854Y002100D01*
X003825Y002033D01*
X003793Y001968D01*
X003757Y001904D01*
X003717Y001842D01*
X003675Y001783D01*
X003629Y001726D01*
X003580Y001672D01*
X003528Y001620D01*
X003474Y001571D01*
X003417Y001525D01*
X003358Y001483D01*
X003296Y001443D01*
X003232Y001407D01*
X003167Y001375D01*
X003100Y001346D01*
X003031Y001321D01*
X002961Y001299D01*
X002890Y001282D01*
X002818Y001268D01*
X002746Y001258D01*
X002673Y001252D01*
X002600Y001250D01*
X002527Y001252D01*
X002454Y001258D01*
X002382Y001268D01*
X002310Y001282D01*
X002239Y001299D01*
X002169Y001321D01*
X002100Y001346D01*
X002033Y001375D01*
X001968Y001407D01*
X001904Y001443D01*
X001842Y001483D01*
X001783Y001525D01*
X001726Y001571D01*
X001672Y001620D01*
X001620Y001672D01*
X001571Y001726D01*
X001525Y001783D01*
X001483Y001842D01*
X001443Y001904D01*
X001407Y001968D01*
X001375Y002033D01*
X001346Y002100D01*
X001321Y002169D01*
X001299Y002239D01*
X001282Y002310D01*
X001268Y002382D01*
X001258Y002454D01*
X001252Y002527D01*
X001250Y002600D01*
X001250Y017100D02*
X001252Y017173D01*
X001258Y017246D01*
X001268Y017318D01*
X001282Y017390D01*
X001299Y017461D01*
X001321Y017531D01*
X001346Y017600D01*
X001375Y017667D01*
X001407Y017732D01*
X001443Y017796D01*
X001483Y017858D01*
X001525Y017917D01*
X001571Y017974D01*
X001620Y018028D01*
X001672Y018080D01*
X001726Y018129D01*
X001783Y018175D01*
X001842Y018217D01*
X001904Y018257D01*
X001968Y018293D01*
X002033Y018325D01*
X002100Y018354D01*
X002169Y018379D01*
X002239Y018401D01*
X002310Y018418D01*
X002382Y018432D01*
X002454Y018442D01*
X002527Y018448D01*
X002600Y018450D01*
X002673Y018448D01*
X002746Y018442D01*
X002818Y018432D01*
X002890Y018418D01*
X002961Y018401D01*
X003031Y018379D01*
X003100Y018354D01*
X003167Y018325D01*
X003232Y018293D01*
X003296Y018257D01*
X003358Y018217D01*
X003417Y018175D01*
X003474Y018129D01*
X003528Y018080D01*
X003580Y018028D01*
X003629Y017974D01*
X003675Y017917D01*
X003717Y017858D01*
X003757Y017796D01*
X003793Y017732D01*
X003825Y017667D01*
X003854Y017600D01*
X003879Y017531D01*
X003901Y017461D01*
X003918Y017390D01*
X003932Y017318D01*
X003942Y017246D01*
X003948Y017173D01*
X003950Y017100D01*
X003948Y017027D01*
X003942Y016954D01*
X003932Y016882D01*
X003918Y016810D01*
X003901Y016739D01*
X003879Y016669D01*
X003854Y016600D01*
X003825Y016533D01*
X003793Y016468D01*
X003757Y016404D01*
X003717Y016342D01*
X003675Y016283D01*
X003629Y016226D01*
X003580Y016172D01*
X003528Y016120D01*
X003474Y016071D01*
X003417Y016025D01*
X003358Y015983D01*
X003296Y015943D01*
X003232Y015907D01*
X003167Y015875D01*
X003100Y015846D01*
X003031Y015821D01*
X002961Y015799D01*
X002890Y015782D01*
X002818Y015768D01*
X002746Y015758D01*
X002673Y015752D01*
X002600Y015750D01*
X002527Y015752D01*
X002454Y015758D01*
X002382Y015768D01*
X002310Y015782D01*
X002239Y015799D01*
X002169Y015821D01*
X002100Y015846D01*
X002033Y015875D01*
X001968Y015907D01*
X001904Y015943D01*
X001842Y015983D01*
X001783Y016025D01*
X001726Y016071D01*
X001672Y016120D01*
X001620Y016172D01*
X001571Y016226D01*
X001525Y016283D01*
X001483Y016342D01*
X001443Y016404D01*
X001407Y016468D01*
X001375Y016533D01*
X001346Y016600D01*
X001321Y016669D01*
X001299Y016739D01*
X001282Y016810D01*
X001268Y016882D01*
X001258Y016954D01*
X001252Y017027D01*
X001250Y017100D01*
X025250Y017100D02*
X025252Y017173D01*
X025258Y017246D01*
X025268Y017318D01*
X025282Y017390D01*
X025299Y017461D01*
X025321Y017531D01*
X025346Y017600D01*
X025375Y017667D01*
X025407Y017732D01*
X025443Y017796D01*
X025483Y017858D01*
X025525Y017917D01*
X025571Y017974D01*
X025620Y018028D01*
X025672Y018080D01*
X025726Y018129D01*
X025783Y018175D01*
X025842Y018217D01*
X025904Y018257D01*
X025968Y018293D01*
X026033Y018325D01*
X026100Y018354D01*
X026169Y018379D01*
X026239Y018401D01*
X026310Y018418D01*
X026382Y018432D01*
X026454Y018442D01*
X026527Y018448D01*
X026600Y018450D01*
X026673Y018448D01*
X026746Y018442D01*
X026818Y018432D01*
X026890Y018418D01*
X026961Y018401D01*
X027031Y018379D01*
X027100Y018354D01*
X027167Y018325D01*
X027232Y018293D01*
X027296Y018257D01*
X027358Y018217D01*
X027417Y018175D01*
X027474Y018129D01*
X027528Y018080D01*
X027580Y018028D01*
X027629Y017974D01*
X027675Y017917D01*
X027717Y017858D01*
X027757Y017796D01*
X027793Y017732D01*
X027825Y017667D01*
X027854Y017600D01*
X027879Y017531D01*
X027901Y017461D01*
X027918Y017390D01*
X027932Y017318D01*
X027942Y017246D01*
X027948Y017173D01*
X027950Y017100D01*
X027948Y017027D01*
X027942Y016954D01*
X027932Y016882D01*
X027918Y016810D01*
X027901Y016739D01*
X027879Y016669D01*
X027854Y016600D01*
X027825Y016533D01*
X027793Y016468D01*
X027757Y016404D01*
X027717Y016342D01*
X027675Y016283D01*
X027629Y016226D01*
X027580Y016172D01*
X027528Y016120D01*
X027474Y016071D01*
X027417Y016025D01*
X027358Y015983D01*
X027296Y015943D01*
X027232Y015907D01*
X027167Y015875D01*
X027100Y015846D01*
X027031Y015821D01*
X026961Y015799D01*
X026890Y015782D01*
X026818Y015768D01*
X026746Y015758D01*
X026673Y015752D01*
X026600Y015750D01*
X026527Y015752D01*
X026454Y015758D01*
X026382Y015768D01*
X026310Y015782D01*
X026239Y015799D01*
X026169Y015821D01*
X026100Y015846D01*
X026033Y015875D01*
X025968Y015907D01*
X025904Y015943D01*
X025842Y015983D01*
X025783Y016025D01*
X025726Y016071D01*
X025672Y016120D01*
X025620Y016172D01*
X025571Y016226D01*
X025525Y016283D01*
X025483Y016342D01*
X025443Y016404D01*
X025407Y016468D01*
X025375Y016533D01*
X025346Y016600D01*
X025321Y016669D01*
X025299Y016739D01*
X025282Y016810D01*
X025268Y016882D01*
X025258Y016954D01*
X025252Y017027D01*
X025250Y017100D01*
X025250Y002600D02*
X025252Y002673D01*
X025258Y002746D01*
X025268Y002818D01*
X025282Y002890D01*
X025299Y002961D01*
X025321Y003031D01*
X025346Y003100D01*
X025375Y003167D01*
X025407Y003232D01*
X025443Y003296D01*
X025483Y003358D01*
X025525Y003417D01*
X025571Y003474D01*
X025620Y003528D01*
X025672Y003580D01*
X025726Y003629D01*
X025783Y003675D01*
X025842Y003717D01*
X025904Y003757D01*
X025968Y003793D01*
X026033Y003825D01*
X026100Y003854D01*
X026169Y003879D01*
X026239Y003901D01*
X026310Y003918D01*
X026382Y003932D01*
X026454Y003942D01*
X026527Y003948D01*
X026600Y003950D01*
X026673Y003948D01*
X026746Y003942D01*
X026818Y003932D01*
X026890Y003918D01*
X026961Y003901D01*
X027031Y003879D01*
X027100Y003854D01*
X027167Y003825D01*
X027232Y003793D01*
X027296Y003757D01*
X027358Y003717D01*
X027417Y003675D01*
X027474Y003629D01*
X027528Y003580D01*
X027580Y003528D01*
X027629Y003474D01*
X027675Y003417D01*
X027717Y003358D01*
X027757Y003296D01*
X027793Y003232D01*
X027825Y003167D01*
X027854Y003100D01*
X027879Y003031D01*
X027901Y002961D01*
X027918Y002890D01*
X027932Y002818D01*
X027942Y002746D01*
X027948Y002673D01*
X027950Y002600D01*
X027948Y002527D01*
X027942Y002454D01*
X027932Y002382D01*
X027918Y002310D01*
X027901Y002239D01*
X027879Y002169D01*
X027854Y002100D01*
X027825Y002033D01*
X027793Y001968D01*
X027757Y001904D01*
X027717Y001842D01*
X027675Y001783D01*
X027629Y001726D01*
X027580Y001672D01*
X027528Y001620D01*
X027474Y001571D01*
X027417Y001525D01*
X027358Y001483D01*
X027296Y001443D01*
X027232Y001407D01*
X027167Y001375D01*
X027100Y001346D01*
X027031Y001321D01*
X026961Y001299D01*
X026890Y001282D01*
X026818Y001268D01*
X026746Y001258D01*
X026673Y001252D01*
X026600Y001250D01*
X026527Y001252D01*
X026454Y001258D01*
X026382Y001268D01*
X026310Y001282D01*
X026239Y001299D01*
X026169Y001321D01*
X026100Y001346D01*
X026033Y001375D01*
X025968Y001407D01*
X025904Y001443D01*
X025842Y001483D01*
X025783Y001525D01*
X025726Y001571D01*
X025672Y001620D01*
X025620Y001672D01*
X025571Y001726D01*
X025525Y001783D01*
X025483Y001842D01*
X025443Y001904D01*
X025407Y001968D01*
X025375Y002033D01*
X025346Y002100D01*
X025321Y002169D01*
X025299Y002239D01*
X025282Y002310D01*
X025268Y002382D01*
X025258Y002454D01*
X025252Y002527D01*
X025250Y002600D01*
D16*
X025931Y002600D02*
X025933Y002651D01*
X025939Y002702D01*
X025949Y002752D01*
X025962Y002802D01*
X025980Y002850D01*
X026000Y002897D01*
X026025Y002942D01*
X026053Y002985D01*
X026084Y003026D01*
X026118Y003064D01*
X026155Y003099D01*
X026194Y003132D01*
X026236Y003162D01*
X026280Y003188D01*
X026326Y003210D01*
X026374Y003230D01*
X026423Y003245D01*
X026473Y003257D01*
X026523Y003265D01*
X026574Y003269D01*
X026626Y003269D01*
X026677Y003265D01*
X026727Y003257D01*
X026777Y003245D01*
X026826Y003230D01*
X026874Y003210D01*
X026920Y003188D01*
X026964Y003162D01*
X027006Y003132D01*
X027045Y003099D01*
X027082Y003064D01*
X027116Y003026D01*
X027147Y002985D01*
X027175Y002942D01*
X027200Y002897D01*
X027220Y002850D01*
X027238Y002802D01*
X027251Y002752D01*
X027261Y002702D01*
X027267Y002651D01*
X027269Y002600D01*
X027267Y002549D01*
X027261Y002498D01*
X027251Y002448D01*
X027238Y002398D01*
X027220Y002350D01*
X027200Y002303D01*
X027175Y002258D01*
X027147Y002215D01*
X027116Y002174D01*
X027082Y002136D01*
X027045Y002101D01*
X027006Y002068D01*
X026964Y002038D01*
X026920Y002012D01*
X026874Y001990D01*
X026826Y001970D01*
X026777Y001955D01*
X026727Y001943D01*
X026677Y001935D01*
X026626Y001931D01*
X026574Y001931D01*
X026523Y001935D01*
X026473Y001943D01*
X026423Y001955D01*
X026374Y001970D01*
X026326Y001990D01*
X026280Y002012D01*
X026236Y002038D01*
X026194Y002068D01*
X026155Y002101D01*
X026118Y002136D01*
X026084Y002174D01*
X026053Y002215D01*
X026025Y002258D01*
X026000Y002303D01*
X025980Y002350D01*
X025962Y002398D01*
X025949Y002448D01*
X025939Y002498D01*
X025933Y002549D01*
X025931Y002600D01*
X025931Y017100D02*
X025933Y017151D01*
X025939Y017202D01*
X025949Y017252D01*
X025962Y017302D01*
X025980Y017350D01*
X026000Y017397D01*
X026025Y017442D01*
X026053Y017485D01*
X026084Y017526D01*
X026118Y017564D01*
X026155Y017599D01*
X026194Y017632D01*
X026236Y017662D01*
X026280Y017688D01*
X026326Y017710D01*
X026374Y017730D01*
X026423Y017745D01*
X026473Y017757D01*
X026523Y017765D01*
X026574Y017769D01*
X026626Y017769D01*
X026677Y017765D01*
X026727Y017757D01*
X026777Y017745D01*
X026826Y017730D01*
X026874Y017710D01*
X026920Y017688D01*
X026964Y017662D01*
X027006Y017632D01*
X027045Y017599D01*
X027082Y017564D01*
X027116Y017526D01*
X027147Y017485D01*
X027175Y017442D01*
X027200Y017397D01*
X027220Y017350D01*
X027238Y017302D01*
X027251Y017252D01*
X027261Y017202D01*
X027267Y017151D01*
X027269Y017100D01*
X027267Y017049D01*
X027261Y016998D01*
X027251Y016948D01*
X027238Y016898D01*
X027220Y016850D01*
X027200Y016803D01*
X027175Y016758D01*
X027147Y016715D01*
X027116Y016674D01*
X027082Y016636D01*
X027045Y016601D01*
X027006Y016568D01*
X026964Y016538D01*
X026920Y016512D01*
X026874Y016490D01*
X026826Y016470D01*
X026777Y016455D01*
X026727Y016443D01*
X026677Y016435D01*
X026626Y016431D01*
X026574Y016431D01*
X026523Y016435D01*
X026473Y016443D01*
X026423Y016455D01*
X026374Y016470D01*
X026326Y016490D01*
X026280Y016512D01*
X026236Y016538D01*
X026194Y016568D01*
X026155Y016601D01*
X026118Y016636D01*
X026084Y016674D01*
X026053Y016715D01*
X026025Y016758D01*
X026000Y016803D01*
X025980Y016850D01*
X025962Y016898D01*
X025949Y016948D01*
X025939Y016998D01*
X025933Y017049D01*
X025931Y017100D01*
X001931Y017100D02*
X001933Y017151D01*
X001939Y017202D01*
X001949Y017252D01*
X001962Y017302D01*
X001980Y017350D01*
X002000Y017397D01*
X002025Y017442D01*
X002053Y017485D01*
X002084Y017526D01*
X002118Y017564D01*
X002155Y017599D01*
X002194Y017632D01*
X002236Y017662D01*
X002280Y017688D01*
X002326Y017710D01*
X002374Y017730D01*
X002423Y017745D01*
X002473Y017757D01*
X002523Y017765D01*
X002574Y017769D01*
X002626Y017769D01*
X002677Y017765D01*
X002727Y017757D01*
X002777Y017745D01*
X002826Y017730D01*
X002874Y017710D01*
X002920Y017688D01*
X002964Y017662D01*
X003006Y017632D01*
X003045Y017599D01*
X003082Y017564D01*
X003116Y017526D01*
X003147Y017485D01*
X003175Y017442D01*
X003200Y017397D01*
X003220Y017350D01*
X003238Y017302D01*
X003251Y017252D01*
X003261Y017202D01*
X003267Y017151D01*
X003269Y017100D01*
X003267Y017049D01*
X003261Y016998D01*
X003251Y016948D01*
X003238Y016898D01*
X003220Y016850D01*
X003200Y016803D01*
X003175Y016758D01*
X003147Y016715D01*
X003116Y016674D01*
X003082Y016636D01*
X003045Y016601D01*
X003006Y016568D01*
X002964Y016538D01*
X002920Y016512D01*
X002874Y016490D01*
X002826Y016470D01*
X002777Y016455D01*
X002727Y016443D01*
X002677Y016435D01*
X002626Y016431D01*
X002574Y016431D01*
X002523Y016435D01*
X002473Y016443D01*
X002423Y016455D01*
X002374Y016470D01*
X002326Y016490D01*
X002280Y016512D01*
X002236Y016538D01*
X002194Y016568D01*
X002155Y016601D01*
X002118Y016636D01*
X002084Y016674D01*
X002053Y016715D01*
X002025Y016758D01*
X002000Y016803D01*
X001980Y016850D01*
X001962Y016898D01*
X001949Y016948D01*
X001939Y016998D01*
X001933Y017049D01*
X001931Y017100D01*
X001931Y002600D02*
X001933Y002651D01*
X001939Y002702D01*
X001949Y002752D01*
X001962Y002802D01*
X001980Y002850D01*
X002000Y002897D01*
X002025Y002942D01*
X002053Y002985D01*
X002084Y003026D01*
X002118Y003064D01*
X002155Y003099D01*
X002194Y003132D01*
X002236Y003162D01*
X002280Y003188D01*
X002326Y003210D01*
X002374Y003230D01*
X002423Y003245D01*
X002473Y003257D01*
X002523Y003265D01*
X002574Y003269D01*
X002626Y003269D01*
X002677Y003265D01*
X002727Y003257D01*
X002777Y003245D01*
X002826Y003230D01*
X002874Y003210D01*
X002920Y003188D01*
X002964Y003162D01*
X003006Y003132D01*
X003045Y003099D01*
X003082Y003064D01*
X003116Y003026D01*
X003147Y002985D01*
X003175Y002942D01*
X003200Y002897D01*
X003220Y002850D01*
X003238Y002802D01*
X003251Y002752D01*
X003261Y002702D01*
X003267Y002651D01*
X003269Y002600D01*
X003267Y002549D01*
X003261Y002498D01*
X003251Y002448D01*
X003238Y002398D01*
X003220Y002350D01*
X003200Y002303D01*
X003175Y002258D01*
X003147Y002215D01*
X003116Y002174D01*
X003082Y002136D01*
X003045Y002101D01*
X003006Y002068D01*
X002964Y002038D01*
X002920Y002012D01*
X002874Y001990D01*
X002826Y001970D01*
X002777Y001955D01*
X002727Y001943D01*
X002677Y001935D01*
X002626Y001931D01*
X002574Y001931D01*
X002523Y001935D01*
X002473Y001943D01*
X002423Y001955D01*
X002374Y001970D01*
X002326Y001990D01*
X002280Y002012D01*
X002236Y002038D01*
X002194Y002068D01*
X002155Y002101D01*
X002118Y002136D01*
X002084Y002174D01*
X002053Y002215D01*
X002025Y002258D01*
X002000Y002303D01*
X001980Y002350D01*
X001962Y002398D01*
X001949Y002448D01*
X001939Y002498D01*
X001933Y002549D01*
X001931Y002600D01*
M02*
