%
M48
M72
T01C0.0394
T02C0.0551
T03C0.1181
T04C0.1260
%
T01
X17100Y6600
X18100Y6600
X21100Y6600
X22100Y6600
X25100Y6600
X26100Y6600
X23100Y10600
X24100Y10600
X17100Y10600
X18100Y10600
X5100Y10600
X6100Y10600
X11100Y10600
X12100Y10600
X7100Y7100
X8100Y7100
X3100Y7100
X4100Y7100
X11100Y7100
X12100Y7100
X5600Y2600
X6600Y2600
X7600Y2600
X8600Y2600
T02
X22041Y14517
X20387Y14517
X18734Y14517
X17080Y14517
X15427Y14517
X13773Y14517
X12120Y14517
X10466Y14517
X8813Y14517
X7159Y14517
X22041Y16683
X20387Y16683
X18734Y16683
X17080Y16683
X15427Y16683
X13773Y16683
X12120Y16683
X10466Y16683
X8813Y16683
X7159Y16683
T03
X23891Y16502
X5309Y16502
T04
X2600Y17100
X26600Y17100
X26600Y2600
X2600Y2600
M30
